<svg width="70" height="53" viewBox="0 0 122 105" fill="none" xmlns="http://www.w3.org/2000/svg">
<circle cx="55" cy="46" r="43" fill="url(#paint0_linear_492_22)" fill-opacity="0.08"/>
<path d="M58.2973 57.6667C58.2973 62.0009 54.9778 65.4762 50.8378 65.4762C48.8595 65.4762 46.9621 64.6534 45.5632 63.1888C44.1643 61.7243 43.3784 59.7379 43.3784 57.6667C43.3784 53.3324 46.6978 49.8571 50.8378 49.8571C52.8162 49.8571 54.7136 50.6799 56.1125 52.1445C57.5114 53.6091 58.2973 55.5955 58.2973 57.6667ZM54.9032 77.1905C55.3508 80.0019 56.2832 82.6181 57.5886 85H28.4595C26.4811 85 24.5837 84.1772 23.1848 82.7126C21.7859 81.2481 21 79.2617 21 77.1905V38.1429C21 33.8086 24.3195 30.3333 28.4595 30.3333H32.1892V22.5238C32.1892 11.7467 40.5438 3 50.8378 3C61.1319 3 69.4865 11.7467 69.4865 22.5238V30.3333H73.2162C75.1946 30.3333 77.0919 31.1561 78.4908 32.6207C79.8898 34.0853 80.6757 36.0716 80.6757 38.1429V50.2086C79.4449 50.0133 78.2141 49.8571 76.9459 49.8571C75.6778 49.8571 74.447 50.0133 73.2162 50.2086V38.1429H28.4595V77.1905H54.9032ZM39.6486 30.3333H62.027V22.5238C62.027 16.0419 57.0292 10.8095 50.8378 10.8095C44.6465 10.8095 39.6486 16.0419 39.6486 22.5238V30.3333ZM85.6735 60.9467L72.2838 74.9648L66.3535 68.7562L62.027 73.2857L72.2838 85L90 66.4524L85.6735 60.9467Z" fill="url(#paint1_linear_492_22)"/>
<rect width="3.8" height="19" rx="1.9" transform="matrix(-4.37114e-08 -1 -1 4.37114e-08 122 19.4)" fill="#FECA13"/>
<rect width="3.8" height="19" rx="1.9" transform="matrix(1 0 0 -1 110.6 27)" fill="#FECA13"/>
<rect width="3.2" height="16" rx="1.6" transform="matrix(-4.37114e-08 -1 -1 4.37114e-08 20 98.6)" fill="#FECA13"/>
<rect width="3.2" height="16" rx="1.6" transform="matrix(1 0 0 -1 10.4 105)" fill="#FECA13"/>
<circle cx="8.5" cy="8.5" r="7.5" stroke="#FECA13" stroke-width="2"/>
<circle cx="97" cy="84" r="5.5" stroke="#FECA13"/>
<defs>
<linearGradient id="paint0_linear_492_22" x1="12" y1="3" x2="108.613" y2="13.9452" gradientUnits="userSpaceOnUse">
<stop stop-color="#FE8313"/>
<stop offset="1" stop-color="#E53804"/>
</linearGradient>
<linearGradient id="paint1_linear_492_22" x1="21" y1="3" x2="98.8026" y2="10.4169" gradientUnits="userSpaceOnUse">
<stop stop-color="#FE8313"/>
<stop offset="1" stop-color="#E53804"/>
</linearGradient>
</defs>
</svg>
