<svg width="30" height="120" viewBox="0 0 40 197" fill="none" xmlns="http://www.w3.org/2000/svg">
<g opacity="0.3">
<rect x="4.52832" y="192.472" width="30.9434" height="30.9434" rx="5" transform="rotate(-90 4.52832 192.472)" fill="white"/>
<path d="M38.8889 168.667L38.8889 162.556C38.8889 160.101 36.899 158.111 34.4444 158.111L28.8889 158.111L28.8889 157L34.4444 157C37.5127 157 40 159.487 40 162.556L40 168.667L38.8889 168.667Z" fill="white"/>
<path d="M28.8889 195.889L34.4444 195.889C36.899 195.889 38.8889 193.899 38.8889 191.444L38.8889 185.889L40 185.889L40 191.444C40 194.513 37.5127 197 34.4444 197L28.8889 197L28.8889 195.889Z" fill="white"/>
<path d="M1.11111 185.889L1.11111 191.444C1.11111 193.899 3.10096 195.889 5.55556 195.889L11.6667 195.889L11.6667 197L5.55556 197C2.48731 197 -1.08724e-07 194.513 -2.42841e-07 191.444L-4.85682e-07 185.889L1.11111 185.889Z" fill="white"/>
<path d="M1.11111 168.667L1.11111 162.556C1.11111 160.101 3.10096 158.111 5.55555 158.111L11.6667 158.111L11.6667 157L5.55555 157C2.48731 157 -1.63973e-06 159.487 -1.50561e-06 162.556L-1.23849e-06 168.667L1.11111 168.667Z" fill="white"/>
<path d="M30.1886 130.571C30.1886 131.115 30.0506 131.613 29.7745 132.066C29.5168 132.501 29.167 132.855 28.7252 133.127C29.3327 134.323 29.6364 135.646 29.6364 137.095C29.6364 138.6 29.3419 139.95 28.7528 141.146C28.1454 142.324 27.317 143.248 26.2678 143.919C25.2001 144.589 24.022 144.925 22.7335 144.925L16.659 144.925C15.3704 144.925 14.2107 144.589 13.1799 143.919C12.1307 143.248 11.3115 142.324 10.7225 141.146C10.115 139.95 9.81128 138.6 9.81128 137.095C9.81128 135.573 10.115 134.223 10.7225 133.045C11.3115 131.849 12.1307 130.916 13.1799 130.245C14.2107 129.574 15.3704 129.239 16.659 129.239L22.7335 129.239C23.6907 129.239 24.5927 129.429 25.4394 129.81C26.2678 130.191 26.9765 130.725 27.5655 131.414C28.2834 130.816 28.6056 130.009 28.5319 128.994C29.6364 128.994 30.1886 129.52 30.1886 130.571ZM25.5775 132.882C24.878 132.121 23.9208 131.74 22.7059 131.74L16.7142 131.74C15.2968 131.74 14.1739 132.211 13.3456 133.154C12.4988 134.096 12.0754 135.41 12.0754 137.095C12.0754 138.763 12.4988 140.068 13.3456 141.01C14.1739 141.952 15.2968 142.424 16.7142 142.424L21.9052 142.424C21.5922 141.499 21.4358 140.657 21.4358 139.895C21.4358 138.391 21.7579 137.077 22.4022 135.954C23.028 134.83 24.0865 133.806 25.5775 132.882ZM27.3723 137.095C27.3723 136.081 27.2158 135.183 26.9029 134.404C25.5775 135.183 24.6663 135.999 24.1693 136.851C23.6723 137.684 23.4238 138.736 23.4238 140.004C23.4238 140.693 23.5803 141.454 23.8932 142.288C24.9793 142.034 25.8352 141.463 26.4611 140.575C27.0685 139.669 27.3723 138.509 27.3723 137.095Z" fill="white"/>
<path d="M27.5931 114.62C28.9553 114.62 29.6364 115.381 29.6364 116.903L27.8693 116.903C27.7036 116.74 27.4551 116.55 27.1238 116.332L27.0133 116.441C27.8048 116.985 28.4399 117.674 28.9185 118.507C29.3971 119.323 29.6364 120.22 29.6364 121.198C29.6364 122.177 29.4247 123.047 29.0013 123.808C28.578 124.551 27.9889 125.131 27.2342 125.548C26.4795 125.947 25.6327 126.146 24.6939 126.146L17.1007 126.146C16.4933 126.146 16.0515 125.947 15.7754 125.548C15.4809 125.149 15.3336 124.551 15.3336 123.754L24.5835 123.754C25.4671 123.754 26.1758 123.5 26.7096 122.993C27.2434 122.467 27.5103 121.697 27.5103 120.682C27.5103 120.011 27.3723 119.395 27.0961 118.833C26.8016 118.272 26.4151 117.828 25.9365 117.501C25.4394 117.157 24.9056 116.985 24.335 116.985L17.1007 116.985C16.4933 116.985 16.0515 116.795 15.7754 116.414C15.4809 116.015 15.3336 115.417 15.3336 114.62L27.5931 114.62Z" fill="white"/>
<path d="M13.2627 109.028C13.2627 109.535 13.0971 109.961 12.7657 110.305C12.4344 110.65 12.0202 110.822 11.5232 110.822C11.0262 110.822 10.6212 110.65 10.3083 110.305C9.97695 109.961 9.81128 109.535 9.81128 109.028C9.81128 108.538 9.97695 108.122 10.3083 107.777C10.6212 107.433 11.0262 107.261 11.5232 107.261C12.0202 107.261 12.4344 107.433 12.7657 107.777C13.0971 108.122 13.2627 108.538 13.2627 109.028ZM17.1007 110.224C16.4933 110.224 16.0515 110.034 15.7754 109.653C15.4809 109.254 15.3336 108.656 15.3336 107.859L27.8693 107.859C28.4767 107.859 28.9277 108.058 29.2222 108.457C29.4983 108.837 29.6364 109.426 29.6364 110.224L17.1007 110.224Z" fill="white"/>
<path d="M29.6364 98.0048C29.6364 99.1103 29.4339 100.098 29.029 100.968C28.624 101.838 28.0533 102.517 27.317 103.007C26.5807 103.478 25.7432 103.714 24.8044 103.714L20.3313 103.714C19.3557 103.714 18.4905 103.478 17.7358 103.007C16.9811 102.517 16.392 101.847 15.9687 100.995C15.5453 100.143 15.3336 99.1647 15.3336 98.0592C15.3336 97.0262 15.4901 96.111 15.803 95.3136C16.0975 94.498 16.5209 93.8637 17.0731 93.4107C17.6254 92.9576 18.2512 92.7311 18.9507 92.7311C19.4109 92.7311 19.7883 92.9123 20.0828 93.2747C20.3589 93.6191 20.4786 94.0722 20.4417 94.634C19.5582 94.634 18.8403 94.9511 18.288 95.5854C17.7358 96.2016 17.4597 97.0081 17.4597 98.0048C17.4597 99.0016 17.7358 99.8081 18.288 100.424C18.8219 101.04 19.5214 101.349 20.3865 101.349L24.6939 101.349C25.5223 101.349 26.2034 101.031 26.7372 100.397C27.2526 99.7628 27.5103 98.9472 27.5103 97.9505C27.5103 96.9537 27.2342 96.1472 26.682 95.5311C26.1297 94.8967 25.421 94.5796 24.5559 94.5796C24.5191 93.9997 24.6387 93.5375 24.9148 93.1932C25.1725 92.8307 25.5407 92.6495 26.0193 92.6495C26.7188 92.6495 27.3446 92.876 27.8969 93.3291C28.4491 93.7822 28.8817 94.4165 29.1946 95.232C29.4891 96.0476 29.6364 96.9718 29.6364 98.0048Z" fill="white"/>
<path d="M29.029 78.2222C29.213 78.3672 29.3603 78.5484 29.4707 78.7659C29.5812 78.9834 29.6364 79.228 29.6364 79.4999C29.6364 79.7898 29.5812 80.0436 29.4707 80.261C29.3603 80.4785 29.1578 80.6779 28.8633 80.8591L21.988 85.1814L23.8104 87.1931L27.8969 87.1931C29.0566 87.1931 29.6364 87.9724 29.6364 89.5309L11.7993 89.5309C10.474 89.5309 9.81128 88.7426 9.81128 87.1659L21.3529 87.1931L15.3612 80.6144C15.8582 80.0889 16.2816 79.8261 16.6313 79.8261C16.8891 79.8261 17.1007 79.8895 17.2664 80.0164C17.4137 80.1251 17.6346 80.3426 17.9291 80.6688L20.6626 83.7135L29.029 78.2222Z" fill="white"/>
<path d="M29.6364 61.1519C29.6364 62.6742 29.4155 63.9972 28.9737 65.1208C28.5319 66.2263 27.9429 67.069 27.2066 67.6489C26.4703 68.2289 25.6787 68.5188 24.832 68.5188C24.1325 68.5188 23.5987 68.3376 23.2305 67.9752C22.844 67.6127 22.6507 67.0599 22.6507 66.3169C24.2153 66.3169 25.4118 65.8548 26.2402 64.9305C27.0501 64.0062 27.4551 62.7104 27.4551 61.0431C27.4551 59.4483 27.1882 58.225 26.6544 57.3732C26.1021 56.5214 25.2922 56.0955 24.2245 56.0955C23.5803 56.0955 23.0556 56.2587 22.6507 56.5849C22.2273 56.893 21.8683 57.4276 21.5738 58.1888C21.2609 58.9318 20.948 60.0101 20.635 61.4237C20.2669 63.091 19.8435 64.414 19.3649 65.3926C18.8679 66.3713 18.2696 67.0871 17.5701 67.5402C16.8706 67.9933 16.0055 68.2198 14.9746 68.2198C13.9438 68.2198 13.0418 67.9389 12.2687 67.3771C11.4772 66.7972 10.8697 65.9816 10.4463 64.9305C10.023 63.8794 9.81128 62.6561 9.81128 61.2606C9.81128 59.9376 10.0046 58.7596 10.3911 57.7266C10.7593 56.6755 11.2931 55.86 11.9926 55.28C12.6737 54.682 13.4468 54.3829 14.312 54.3829C14.8458 54.3829 15.2692 54.5551 15.5821 54.8994C15.8766 55.2256 16.0239 55.7422 16.0239 56.4489C14.6249 56.6483 13.6033 57.1376 12.959 57.9169C12.3147 58.6781 11.9926 59.7926 11.9926 61.2606C11.9926 62.6742 12.2503 63.7616 12.7657 64.5227C13.2627 65.2839 13.9714 65.6645 14.8918 65.6645C15.5361 65.6645 16.0699 65.5286 16.4933 65.2567C16.8983 64.9667 17.248 64.4865 17.5425 63.8159C17.837 63.1273 18.1224 62.1667 18.3985 60.9344C18.8035 59.0858 19.2544 57.636 19.7515 56.5849C20.2485 55.5156 20.8559 54.7454 21.5738 54.2742C22.2917 53.803 23.1753 53.5674 24.2245 53.5674C25.8996 53.5674 27.225 54.2561 28.2006 55.6334C29.1578 57.0108 29.6364 58.8502 29.6364 61.1519Z" fill="white"/>
<path d="M11.8545 50.4533C11.1919 50.4533 10.6856 50.2539 10.3359 49.8552C9.98615 49.4565 9.81128 48.8675 9.81128 48.0882L17.0731 48.0882C17.3677 48.342 17.6254 48.5413 17.8463 48.6863L17.9567 48.5776C17.1836 48.0158 16.5577 47.309 16.0791 46.4572C15.5821 45.6054 15.3336 44.6811 15.3336 43.6844C15.3336 42.2164 15.7754 41.0565 16.659 40.2047C17.5425 39.353 18.6838 38.9271 20.0828 38.9271L27.8693 38.9271C28.4767 38.9271 28.9277 39.1264 29.2222 39.5251C29.4983 39.9057 29.6364 40.4947 29.6364 41.2921L20.3313 41.2921C19.4477 41.2921 18.7482 41.5368 18.2328 42.0261C17.7174 42.5154 17.4597 43.2585 17.4597 44.2552C17.4597 44.9258 17.607 45.5601 17.9015 46.1581C18.1776 46.7381 18.5642 47.2093 19.0612 47.5717C19.5398 47.9161 20.0644 48.0882 20.635 48.0882L27.8693 48.0882C28.4767 48.0882 28.9277 48.2876 29.2222 48.6863C29.4983 49.0669 29.6364 49.6559 29.6364 50.4533L11.8545 50.4533Z" fill="white"/>
<path d="M29.6364 30.8883C29.6364 32.4469 29.213 33.7065 28.3663 34.667C27.5195 35.6094 26.4058 36.0806 25.0253 36.0806C23.6263 36.0806 22.5034 35.5822 21.6567 34.5854C20.7915 33.5887 20.3589 32.2747 20.3589 30.6437C20.3589 28.9039 20.9848 27.4722 22.2365 26.3485L22.126 26.2398C21.9052 26.4392 21.6751 26.6657 21.4358 26.9194L20.2761 26.9194C19.3373 26.9194 18.6102 27.2094 18.0948 27.7893C17.5793 28.3692 17.3216 29.1938 17.3216 30.2631C17.3216 32.166 18.0856 33.5252 19.6134 34.3408C19.4661 34.6307 19.2728 34.8754 19.0335 35.0747C18.7758 35.256 18.5181 35.3466 18.2604 35.3466C17.7634 35.3466 17.294 35.1019 16.8522 34.6126C16.392 34.1233 16.0239 33.4799 15.7478 32.6825C15.4717 31.867 15.3336 31.0152 15.3336 30.1272C15.3336 28.4055 15.7662 27.0553 16.6313 26.0767C17.4965 25.0799 18.693 24.5815 20.2208 24.5815L27.7864 24.5815C28.4307 24.5815 28.9001 24.7628 29.1946 25.1252C29.4891 25.4877 29.6364 26.0586 29.6364 26.8379L28.3387 26.8379C27.9337 26.4573 27.6944 26.2489 27.6208 26.2126L27.5103 26.3213C28.9277 27.4993 29.6364 29.0217 29.6364 30.8883ZM27.7312 30.4806C27.7312 29.3569 27.4919 28.478 27.0133 27.8437C26.5347 27.1913 25.872 26.865 25.0253 26.865C24.1785 26.865 23.5066 27.1822 23.0096 27.8165C22.5126 28.4508 22.2641 29.3207 22.2641 30.4262C22.2641 31.4592 22.5126 32.2747 23.0096 32.8728C23.4882 33.4527 24.1601 33.7427 25.0253 33.7427C25.8904 33.7427 26.5623 33.4618 27.0409 32.9C27.5011 32.32 27.7312 31.5136 27.7312 30.4806Z" fill="white"/>
<path d="M17.4597 15.0071C17.4597 16.022 17.7726 16.8647 18.3985 17.5353C19.0059 18.2058 19.7514 18.5411 20.635 18.5411L27.8693 18.5411C28.4767 18.5411 28.9277 18.7404 29.2222 19.1391C29.4983 19.5197 29.6364 20.1087 29.6364 20.9061L17.3769 20.9061C16.0147 20.9061 15.3336 20.145 15.3336 18.6226L17.0179 18.6226C17.3308 18.9126 17.6069 19.1119 17.8462 19.2207L17.9567 19.112C16.208 17.9521 15.3336 16.5022 15.3336 14.7624C15.3336 14.11 15.4993 13.6116 15.8306 13.2673C16.1435 12.923 16.5301 12.7508 16.9903 12.7508C17.3216 12.7508 17.6162 12.8323 17.8739 12.9954C17.5977 13.5029 17.4597 14.1734 17.4597 15.0071Z" fill="white"/>
<path d="M29.6364 5.64609C29.6364 6.75159 29.4247 7.73929 29.0013 8.60919C28.5595 9.47909 27.9613 10.1587 27.2066 10.648C26.4335 11.1373 25.5683 11.382 24.6111 11.382L20.5246 11.382C19.549 11.382 18.6654 11.1283 17.8739 10.6208C17.0823 10.0953 16.4657 9.39754 16.0239 8.52764C15.5637 7.63961 15.3336 6.6791 15.3336 5.64609C15.3336 4.61308 15.5545 3.67069 15.9963 2.81891C16.4381 1.949 17.0455 1.26939 17.8186 0.780074C18.5918 0.272631 19.4661 0.0189009 20.4417 0.0189009L22.2089 0.0189008C22.5034 0.0189008 22.7519 0.127644 22.9544 0.345119C23.1569 0.562595 23.2581 0.825382 23.2581 1.13347L23.2581 9.07133L24.5006 9.07133C25.4394 9.07133 26.1942 8.78137 26.7648 8.20143C27.3354 7.60337 27.6208 6.75159 27.6208 5.64609C27.6208 4.54059 27.3722 3.69787 26.8752 3.11793C26.3782 2.538 25.7064 2.24803 24.8596 2.24803C24.8228 1.70434 24.9332 1.25127 25.1909 0.888809C25.4302 0.508227 25.7892 0.317938 26.2678 0.317938C26.8568 0.317938 27.4091 0.571656 27.9245 1.0791C28.4399 1.56842 28.8541 2.22084 29.167 3.03638C29.4799 3.85191 29.6364 4.72182 29.6364 5.64609ZM21.3805 2.22084L20.4417 2.22084C19.5214 2.22084 18.7758 2.538 18.2052 3.1723C17.6162 3.78849 17.3216 4.61308 17.3216 5.64609C17.3216 6.6791 17.6162 7.51275 18.2052 8.14706C18.7758 8.76324 19.5214 9.07133 20.4417 9.07133L21.3805 9.07133L21.3805 2.22084Z" fill="white"/>
<path d="M29.8626 170.579C29.8626 171.122 29.7268 171.62 29.4551 172.073C29.2015 172.508 28.8573 172.861 28.4226 173.133C29.0203 174.328 29.3192 175.651 29.3192 177.1C29.3192 178.603 29.0294 179.952 28.4498 181.148C27.852 182.325 27.0369 183.249 26.0045 183.919C24.9539 184.589 23.7947 184.925 22.5268 184.925L16.5494 184.925C15.2815 184.925 14.1403 184.589 13.126 183.919C12.0935 183.249 11.2875 182.325 10.7079 181.148C10.1101 179.952 9.81128 178.603 9.81128 177.1C9.81128 175.578 10.1101 174.229 10.7079 173.051C11.2875 171.856 12.0935 170.923 13.126 170.253C14.1403 169.583 15.2815 169.248 16.5494 169.248L22.5268 169.248C23.4686 169.248 24.3562 169.438 25.1894 169.818C26.0045 170.199 26.7018 170.733 27.2815 171.421C27.9879 170.823 28.3049 170.017 28.2324 169.003C29.3192 169.003 29.8626 169.528 29.8626 170.579ZM25.3252 172.888C24.6369 172.128 23.6951 171.747 22.4996 171.747L16.6037 171.747C15.209 171.747 14.1041 172.218 13.289 173.16C12.4558 174.102 12.0392 175.415 12.0392 177.1C12.0392 178.766 12.4558 180.07 13.289 181.012C14.1041 181.954 15.209 182.425 16.6037 182.425L21.7117 182.425C21.4037 181.501 21.2498 180.659 21.2498 179.898C21.2498 178.395 21.5668 177.082 22.2007 175.959C22.8166 174.836 23.8581 173.812 25.3252 172.888ZM27.0913 177.1C27.0913 176.085 26.9373 175.189 26.6294 174.41C25.3252 175.189 24.4286 176.004 23.9396 176.855C23.4505 177.688 23.206 178.739 23.206 180.007C23.206 180.695 23.36 181.456 23.6679 182.289C24.7366 182.036 25.5788 181.465 26.1947 180.577C26.7924 179.672 27.0913 178.512 27.0913 177.1Z" fill="url(#paint0_linear_255_490)"/>
</g>
<defs>
<linearGradient id="paint0_linear_255_490" x1="9.81128" y1="184.925" x2="30.2124" y2="169.821" gradientUnits="userSpaceOnUse">
<stop stop-color="#FE8313"/>
<stop offset="1" stop-color="#E53804"/>
</linearGradient>
</defs>
</svg>
