<svg width="14" height="15" viewBox="0 0 19 20" fill="none" xmlns="http://www.w3.org/2000/svg">
<path fill-rule="evenodd" clip-rule="evenodd" d="M0.769231 0.769231C0.769231 0.344396 1.11363 0 1.53846 0H16.9231C17.3479 0 17.6923 0.344396 17.6923 0.769231C17.6923 1.19407 17.3479 1.53846 16.9231 1.53846V18.4615H17.6923C18.1171 18.4615 18.4615 18.8059 18.4615 19.2308C18.4615 19.6556 18.1171 20 17.6923 20H0.769231C0.344396 20 0 19.6556 0 19.2308C0 18.8059 0.344396 18.4615 0.769231 18.4615H1.53846V1.53846C1.11363 1.53846 0.769231 1.19407 0.769231 0.769231ZM3.07692 1.53846V18.4615H5.38461V15.7692C5.38461 14.7075 6.24593 13.8462 7.30769 13.8462H11.1538C12.2156 13.8462 13.0769 14.7075 13.0769 15.7692V18.4615H15.3846V1.53846H3.07692ZM11.5385 18.4615V15.7692C11.5385 15.5571 11.3659 15.3846 11.1538 15.3846H7.30769C7.0956 15.3846 6.92308 15.5571 6.92308 15.7692V18.4615H11.5385ZM5.38461 4.61539C5.38461 4.19055 5.72901 3.84615 6.15385 3.84615H7.69231C8.11714 3.84615 8.46154 4.19055 8.46154 4.61539C8.46154 5.04022 8.11714 5.38462 7.69231 5.38462H6.15385C5.72901 5.38462 5.38461 5.04022 5.38461 4.61539ZM10 4.61539C10 4.19055 10.3444 3.84615 10.7692 3.84615H12.3077C12.7325 3.84615 13.0769 4.19055 13.0769 4.61539C13.0769 5.04022 12.7325 5.38462 12.3077 5.38462H10.7692C10.3444 5.38462 10 5.04022 10 4.61539ZM5.38461 7.69231C5.38461 7.26747 5.72901 6.92308 6.15385 6.92308H7.69231C8.11714 6.92308 8.46154 7.26747 8.46154 7.69231C8.46154 8.11714 8.11714 8.46154 7.69231 8.46154H6.15385C5.72901 8.46154 5.38461 8.11714 5.38461 7.69231ZM10 7.69231C10 7.26747 10.3444 6.92308 10.7692 6.92308H12.3077C12.7325 6.92308 13.0769 7.26747 13.0769 7.69231C13.0769 8.11714 12.7325 8.46154 12.3077 8.46154H10.7692C10.3444 8.46154 10 8.11714 10 7.69231ZM5.38461 10.7692C5.38461 10.3444 5.72901 10 6.15385 10H7.69231C8.11714 10 8.46154 10.3444 8.46154 10.7692C8.46154 11.1941 8.11714 11.5385 7.69231 11.5385H6.15385C5.72901 11.5385 5.38461 11.1941 5.38461 10.7692ZM10 10.7692C10 10.3444 10.3444 10 10.7692 10H12.3077C12.7325 10 13.0769 10.3444 13.0769 10.7692C13.0769 11.1941 12.7325 11.5385 12.3077 11.5385H10.7692C10.3444 11.5385 10 11.1941 10 10.7692Z" fill="#BDCADE"/>
</svg>
