<svg width="13" height="14" viewBox="0 0 16 17" fill="none" xmlns="http://www.w3.org/2000/svg">
<path d="M9.588 4.93161e-08C9.94479 9.25308e-05 10.2925 0.112443 10.5819 0.321137C10.8713 0.52983 11.0877 0.824288 11.2004 1.1628L11.662 2.55H14.45C14.6754 2.55 14.8916 2.63955 15.051 2.79896C15.2104 2.95837 15.3 3.17457 15.3 3.4C15.3 3.62543 15.2104 3.84163 15.051 4.00104C14.8916 4.16045 14.6754 4.25 14.45 4.25L14.4475 4.31035L13.7105 14.6319C13.6645 15.275 13.3766 15.8768 12.9047 16.3162C12.4329 16.7556 11.8121 16.9999 11.1673 17H4.1327C3.48794 16.9999 2.86714 16.7556 2.39527 16.3162C1.9234 15.8768 1.63549 15.275 1.5895 14.6319L0.85255 4.3095C0.851012 4.2897 0.850162 4.26986 0.85 4.25C0.624566 4.25 0.408365 4.16045 0.248959 4.00104C0.0895533 3.84163 0 3.62543 0 3.4C0 3.17457 0.0895533 2.95837 0.248959 2.79896C0.408365 2.63955 0.624566 2.55 0.85 2.55H3.638L4.09955 1.1628C4.21234 0.82415 4.42887 0.529594 4.71843 0.320888C5.008 0.112182 5.35591 -8.5902e-05 5.71285 4.93161e-08H9.588ZM12.7474 4.25H2.55255L3.28525 14.5103C3.30051 14.7247 3.39641 14.9254 3.55365 15.0719C3.71088 15.2184 3.91778 15.2999 4.1327 15.3H11.1673C11.3822 15.2999 11.5891 15.2184 11.7464 15.0719C11.9036 14.9254 11.9995 14.7247 12.0148 14.5103L12.7474 4.25ZM5.95 6.8C6.15819 6.80003 6.35914 6.87646 6.51472 7.01481C6.6703 7.15315 6.76969 7.34379 6.79405 7.55055L6.8 7.65V11.9C6.79976 12.1166 6.7168 12.325 6.56808 12.4826C6.41936 12.6401 6.21609 12.7349 5.99981 12.7476C5.78354 12.7603 5.57058 12.6899 5.40444 12.5509C5.23831 12.4118 5.13154 12.2146 5.10595 11.9995L5.1 11.9V7.65C5.1 7.42457 5.18955 7.20837 5.34896 7.04896C5.50837 6.88955 5.72457 6.8 5.95 6.8ZM9.35 6.8C9.57543 6.8 9.79163 6.88955 9.95104 7.04896C10.1104 7.20837 10.2 7.42457 10.2 7.65V11.9C10.2 12.1254 10.1104 12.3416 9.95104 12.501C9.79163 12.6604 9.57543 12.75 9.35 12.75C9.12457 12.75 8.90837 12.6604 8.74896 12.501C8.58955 12.3416 8.5 12.1254 8.5 11.9V7.65C8.5 7.42457 8.58955 7.20837 8.74896 7.04896C8.90837 6.88955 9.12457 6.8 9.35 6.8ZM9.588 1.7H5.712L5.42895 2.55H9.87105L9.588 1.7Z" fill="url(#paint0_linear_415_1177)"/>
<defs>
<linearGradient id="paint0_linear_415_1177" x1="0" y1="0" x2="17.2295" y2="1.75674" gradientUnits="userSpaceOnUse">
<stop stop-color="#FE8313"/>
<stop offset="1" stop-color="#E53804"/>
</linearGradient>
</defs>
</svg>
