<svg width="14" height="15" viewBox="0 0 16 17" fill="none" xmlns="http://www.w3.org/2000/svg">
<path d="M5.81212 0.233058C5.96154 0.0838237 6.16408 0 6.37526 0C6.58644 0 6.78899 0.0838237 6.93841 0.233058L9.59477 2.88942C9.73554 3.04048 9.81217 3.24029 9.80853 3.44675C9.80489 3.6532 9.72125 3.85018 9.57524 3.99619C9.42924 4.14219 9.23226 4.22583 9.0258 4.22947C8.81935 4.23311 8.61954 4.15648 8.46848 4.01571L7.17217 2.71941V9.82783C7.17217 10.0392 7.08821 10.2419 6.93876 10.3913C6.78931 10.5408 6.58662 10.6247 6.37526 10.6247C6.16391 10.6247 5.96121 10.5408 5.81176 10.3913C5.66232 10.2419 5.57836 10.0392 5.57836 9.82783V2.71941L4.28205 4.01571C4.13098 4.15648 3.93118 4.23311 3.72472 4.22947C3.51827 4.22583 3.32129 4.14219 3.17528 3.99619C3.02928 3.85018 2.94564 3.6532 2.942 3.44675C2.93836 3.24029 3.01499 3.04048 3.15576 2.88942L5.81212 0.233058ZM2.72861 15.4062C2.84642 15.8624 3.11252 16.2666 3.48509 16.5551C3.85765 16.8436 4.31554 17.0001 4.78676 17H10.6308C11.8989 17 13.1151 16.4962 14.0117 15.5995C14.9084 14.7029 15.4122 13.4867 15.4122 12.2186V9.82783C15.4122 9.61648 15.3282 9.41378 15.1788 9.26433C15.0293 9.11488 14.8266 9.03092 14.6153 9.03092C14.4039 9.03092 14.2012 9.11488 14.0518 9.26433C13.9023 9.41378 13.8184 9.61648 13.8184 9.82783V12.2186C13.8184 13.064 13.4825 13.8748 12.8847 14.4725C12.287 15.0703 11.4762 15.4062 10.6308 15.4062H2.72861ZM1.59382 7.17147C1.59382 6.96012 1.50986 6.75742 1.36041 6.60797C1.21096 6.45852 1.00826 6.37456 0.796908 6.37456C0.585555 6.37456 0.382858 6.45852 0.233409 6.60797C0.0839596 6.75742 0 6.96012 0 7.17147V12.2186C0 12.7822 0.223892 13.3227 0.622424 13.7212C1.02095 14.1197 1.56148 14.3436 2.12509 14.3436H10.6254C11.189 14.3436 11.7296 14.1197 12.1281 13.7212C12.5266 13.3227 12.7505 12.7822 12.7505 12.2186V7.17147C12.7505 6.96012 12.6666 6.75742 12.5171 6.60797C12.3677 6.45852 12.165 6.37456 11.9536 6.37456C11.7423 6.37456 11.5396 6.45852 11.3901 6.60797C11.2407 6.75742 11.1567 6.96012 11.1567 7.17147V12.2186C11.1567 12.3595 11.1007 12.4946 11.0011 12.5942C10.9015 12.6939 10.7663 12.7498 10.6254 12.7498H2.12509C1.98419 12.7498 1.84905 12.6939 1.74942 12.5942C1.64979 12.4946 1.59382 12.3595 1.59382 12.2186V7.17147Z" fill="#8B9FBC"/>
</svg>
