<svg width="21" height="22" viewBox="0 0 21 22" fill="none" xmlns="http://www.w3.org/2000/svg">
<path d="M4.66667 16.7545H16.3333C16.5667 16.7545 16.7417 16.6475 16.8583 16.4336C16.975 16.2198 16.9556 16.0156 16.8 15.8211L13.5917 11.5336C13.475 11.3781 13.3194 11.3003 13.125 11.3003C12.9306 11.3003 12.775 11.3781 12.6583 11.5336L9.625 15.5878L7.46667 12.7003C7.35 12.5448 7.19444 12.467 7 12.467C6.80556 12.467 6.65 12.5448 6.53333 12.7003L4.2 15.8211C4.04444 16.0156 4.025 16.2198 4.14167 16.4336C4.25833 16.6475 4.43333 16.7545 4.66667 16.7545ZM2.33333 21.4211C1.69167 21.4211 1.14217 21.1929 0.684833 20.7363C0.228278 20.279 0 19.7295 0 19.0878V2.75448C0 2.11281 0.228278 1.56331 0.684833 1.10598C1.14217 0.64942 1.69167 0.421143 2.33333 0.421143H18.6667C19.3083 0.421143 19.8578 0.64942 20.3152 1.10598C20.7717 1.56331 21 2.11281 21 2.75448V19.0878C21 19.7295 20.7717 20.279 20.3152 20.7363C19.8578 21.1929 19.3083 21.4211 18.6667 21.4211H2.33333ZM2.33333 19.0878H18.6667V2.75448H2.33333V19.0878Z" fill="white"/>
</svg>
