<svg width="20" height="17" viewBox="0 0 23 20" fill="none" xmlns="http://www.w3.org/2000/svg">
<path d="M9.91433 0C9.63918 0 9.36403 0.063158 9.09946 0.157895L1.31052 3.36842C0.792772 3.57931 0.380411 3.98608 0.1641 4.4993C-0.0522112 5.01252 -0.0547664 5.59017 0.156996 6.10526L5.40606 18.6842C5.56111 19.0657 5.82518 19.3937 6.16561 19.6276C6.50605 19.8614 6.90792 19.9909 7.32155 20C7.5967 20 7.88244 19.9684 8.15759 19.8421L15.9571 16.6316C16.3336 16.4727 16.6563 16.2097 16.887 15.8739C17.1177 15.538 17.2468 15.1434 17.2588 14.7368C17.2694 14.4737 17.2165 14.1684 17.1212 13.8947L11.8298 1.31579C11.6802 0.930547 11.4175 0.599011 11.0759 0.364333C10.7343 0.129655 10.3295 0.00270288 9.91433 0ZM13.5971 0L17.2482 8.78947V2.10526C17.2482 1.54691 17.0252 1.01143 16.6283 0.616617C16.2314 0.221804 15.693 0 15.1317 0M19.3754 1.62105V11.1263L21.947 4.95789C22.0524 4.70291 22.1062 4.42973 22.1053 4.15403C22.1043 3.87833 22.0487 3.60552 21.9415 3.35125C21.8343 3.09699 21.6777 2.86627 21.4807 2.67232C21.2837 2.47838 21.0502 2.32502 20.7934 2.22105M9.91433 2.07368L15.1846 14.7263L7.36388 17.9474L2.09365 5.30526" fill="#BDCADE"/>
</svg>
