<svg width="21" height="26" viewBox="0 0 21 26" fill="none" xmlns="http://www.w3.org/2000/svg">
<path d="M12.7108 9.39137C12.711 9.68181 12.654 9.96944 12.5431 10.2379C12.4321 10.5063 12.2694 10.7502 12.0642 10.9557C11.859 11.1612 11.6153 11.3243 11.347 11.4357C11.0788 11.547 10.7913 11.6044 10.5008 11.6047C10.2104 11.6049 9.92275 11.5479 9.65433 11.4369C9.38592 11.326 9.14199 11.1633 8.93647 10.9581C8.73095 10.7528 8.56786 10.5092 8.45651 10.2409C8.34517 9.97267 8.28774 9.68512 8.28753 9.39469C8.28709 8.80812 8.51967 8.24541 8.93413 7.83034C9.34858 7.41527 9.91094 7.18184 10.4975 7.1814C11.0841 7.18096 11.6468 7.41355 12.0618 7.828C12.4769 8.24245 12.7103 8.80481 12.7108 9.39137ZM14.3687 13.6091V14.2059C14.3687 15.4051 12.7218 16.3026 10.5003 16.3026C8.27868 16.3026 6.63184 15.404 6.63184 14.207V13.6091C6.63141 13.4914 6.65417 13.3748 6.69883 13.2659C6.74348 13.1571 6.80916 13.0581 6.8921 12.9746C6.97504 12.8912 7.07362 12.8249 7.1822 12.7796C7.29078 12.7342 7.40723 12.7108 7.52489 12.7105H13.4767C13.5943 12.7109 13.7106 12.7345 13.8191 12.7799C13.9275 12.8253 14.026 12.8916 14.1088 12.975C14.1916 13.0585 14.2572 13.1574 14.3018 13.2662C14.3464 13.375 14.3691 13.4915 14.3687 13.6091Z" fill="white"/>
<path d="M3.59211 0C2.63942 0 1.72575 0.378453 1.0521 1.0521C0.378453 1.72575 0 2.63942 0 3.59211V21.8289C0 22.7816 0.378453 23.6953 1.0521 24.3689C1.72575 25.0426 2.63942 25.4211 3.59211 25.4211H20.1711C20.3909 25.4211 20.6017 25.3337 20.7572 25.1783C20.9127 25.0228 21 24.812 21 24.5921C21 24.3723 20.9127 24.1614 20.7572 24.0059C20.6017 23.8505 20.3909 23.7632 20.1711 23.7632H3.59211C3.127 23.7631 2.67748 23.5955 2.3259 23.2911C1.97432 22.9866 1.74423 22.5656 1.67779 22.1053H20.1711C20.3909 22.1053 20.6017 22.0179 20.7572 21.8625C20.9127 21.707 21 21.4962 21 21.2763V3.59211C21 2.63942 20.6215 1.72575 19.9479 1.0521C19.2742 0.378453 18.3606 0 17.4079 0H3.59211ZM19.3421 3.59211V20.4474H1.65789V3.59211C1.65789 2.52442 2.52442 1.65789 3.59211 1.65789H17.4079C18.4767 1.65789 19.3421 2.52442 19.3421 3.59211Z" fill="white"/>
</svg>
