<svg width="17" height="17" viewBox="0 0 17 17" fill="none" xmlns="http://www.w3.org/2000/svg">
<path d="M1.65854 17C1.20244 17 0.811854 16.8377 0.48678 16.513C0.16226 16.1889 0 15.799 0 15.3435V3.74787C0 3.29233 0.16226 2.90222 0.48678 2.57754C0.811854 2.25341 1.20244 2.09135 1.65854 2.09135H9.05976L7.40122 3.74787H1.65854V15.3435H13.2683V9.58709L14.9268 7.93057V15.3435C14.9268 15.799 14.7646 16.1889 14.44 16.513C14.115 16.8377 13.7244 17 13.2683 17H1.65854ZM10.9256 2.5676L12.1073 3.72716L6.63415 9.19367V10.3739H7.79512L13.289 4.88672L14.4707 6.04628L8.97683 11.5335C8.8248 11.6853 8.64872 11.8063 8.44858 11.8963C8.2479 11.9857 8.03699 12.0304 7.81585 12.0304H5.80488C5.56992 12.0304 5.37311 11.9512 5.21444 11.7927C5.05522 11.6337 4.97561 11.4369 4.97561 11.2022V9.19367C4.97561 8.9728 5.01707 8.76214 5.1 8.5617C5.18293 8.36182 5.30041 8.18595 5.45244 8.0341L10.9256 2.5676ZM14.4707 6.04628L10.9256 2.5676L12.9988 0.496955C13.3305 0.165652 13.728 0 14.1913 0C14.654 0 15.0443 0.165652 15.3622 0.496955L16.5232 1.67722C16.8411 1.99472 17 2.38124 17 2.83678C17 3.29233 16.8411 3.67885 16.5232 3.99635L14.4707 6.04628Z" fill="url(#paint0_linear_415_1174)"/>
<defs>
<linearGradient id="paint0_linear_415_1174" x1="0" y1="0" x2="19.0979" y2="2.16359" gradientUnits="userSpaceOnUse">
<stop stop-color="#FE8313"/>
<stop offset="1" stop-color="#E53804"/>
</linearGradient>
</defs>
</svg>
