<svg width="23" height="18" viewBox="0 0 23 18" fill="none" xmlns="http://www.w3.org/2000/svg">
<path d="M20.25 4.5L11.25 10.125L2.25 4.5V2.25L11.25 7.875L20.25 2.25M20.25 0H2.25C1.00125 0 0 1.00125 0 2.25V15.75C0 16.3467 0.237053 16.919 0.65901 17.341C1.08097 17.7629 1.65326 18 2.25 18H20.25C20.8467 18 21.419 17.7629 21.841 17.341C22.2629 16.919 22.5 16.3467 22.5 15.75V2.25C22.5 1.65326 22.2629 1.08097 21.841 0.65901C21.419 0.237053 20.8467 0 20.25 0Z" fill="url(#paint0_linear_415_1184)"/>
<defs>
<linearGradient id="paint0_linear_415_1184" x1="22.5" y1="-4.52356e-07" x2="25.0863" y2="13.0147" gradientUnits="userSpaceOnUse">
<stop stop-color="#FE8313"/>
<stop offset="1" stop-color="#E53804"/>
</linearGradient>
</defs>
</svg>
