<svg width="21" height="20" viewBox="0 0 21 20" fill="none" xmlns="http://www.w3.org/2000/svg">
<path fill-rule="evenodd" clip-rule="evenodd" d="M4.85277 9.43683C5.07719 9.11622 5.51904 9.03825 5.83965 9.26268L10.1574 12.2851L14.4751 9.26268C14.7957 9.03825 15.2376 9.11622 15.462 9.43683C15.6865 9.75745 15.6085 10.1993 15.2879 10.4237L10.5638 13.7306C10.3198 13.9014 9.99502 13.9014 9.75103 13.7306L5.02692 10.4237C4.70631 10.1993 4.62834 9.75745 4.85277 9.43683Z" fill="#BDCADE"/>
<path fill-rule="evenodd" clip-rule="evenodd" d="M10.1568 1.41723C9.94278 1.41723 9.73274 1.47541 9.54919 1.58554L9.18461 0.977909L9.54919 1.58554L1.99062 6.12068C1.99062 6.12068 1.99062 6.12069 1.99062 6.12069C1.81574 6.22562 1.67101 6.37404 1.57053 6.55152C1.47004 6.729 1.41723 6.92947 1.41723 7.13342V17.4017C1.41723 17.715 1.54166 18.0154 1.76315 18.2369C1.98463 18.4583 2.28503 18.5828 2.59826 18.5828H17.7154C18.0286 18.5828 18.329 18.4583 18.5505 18.2369C18.772 18.0154 18.8964 17.715 18.8964 17.4017V7.13341C18.8964 6.92947 18.8436 6.72899 18.7431 6.55152C18.6427 6.37405 18.4979 6.22561 18.323 6.12069L10.7645 1.58554L11.1291 0.977909L10.7645 1.58554C10.5809 1.47541 10.3709 1.41723 10.1568 1.41723ZM8.82003 0.370277C9.22384 0.127987 9.68591 0 10.1568 0C10.6278 0 11.0898 0.127987 11.4936 0.370277L19.0522 4.90542L18.6876 5.51305L19.0522 4.90542C19.4369 5.13627 19.7554 5.46281 19.9764 5.85326C20.1975 6.24371 20.3137 6.68475 20.3137 7.13343V17.4017C20.3137 18.0908 20.0399 18.7517 19.5527 19.239C19.0654 19.7263 18.4045 20 17.7154 20H2.59826C1.90916 20 1.24828 19.7263 0.761012 19.239C0.273744 18.7517 1.21376e-10 18.0908 1.21376e-10 17.4017V7.13343C-4.33619e-06 6.68474 0.116182 6.24371 0.337245 5.85326C0.558308 5.46281 0.876713 5.13627 1.26145 4.90542L1.26146 4.90542L8.82003 0.370277Z" fill="#BDCADE"/>
</svg>
