<svg width="30" height="30" viewBox="0 0 40 40" fill="none" xmlns="http://www.w3.org/2000/svg">
<rect x="4.52881" y="4.52832" width="30.9434" height="30.9434" rx="5" fill="white"/>
<path d="M28.3333 38.8889H34.4444C36.899 38.8889 38.8889 36.899 38.8889 34.4444V28.8889H40V34.4444C40 37.5127 37.5127 40 34.4444 40H28.3333V38.8889Z" fill="white"/>
<path d="M1.11111 28.8889L1.11111 34.4444C1.11111 36.899 3.10096 38.8889 5.55556 38.8889H11.1111V40H5.55556C2.48731 40 0 37.5127 0 34.4444L0 28.8889H1.11111Z" fill="white"/>
<path d="M11.1111 1.11111L5.55556 1.11111C3.10096 1.11111 1.11111 3.10096 1.11111 5.55556L1.11111 11.6667H0L0 5.55556C0 2.48731 2.48731 0 5.55556 0L11.1111 0V1.11111Z" fill="white"/>
<path d="M28.3333 1.11111L34.4444 1.11111C36.899 1.11111 38.8889 3.10096 38.8889 5.55556V11.6667H40V5.55556C40 2.48731 37.5127 0 34.4444 0L28.3333 0V1.11111Z" fill="white"/>
<path d="M26.4209 29.8626C25.8775 29.8626 25.3793 29.7268 24.9265 29.4551C24.4918 29.2015 24.1386 28.8573 23.8669 28.4226C22.6714 29.0203 21.3492 29.3192 19.9001 29.3192C18.3967 29.3192 17.0473 29.0294 15.8518 28.4498C14.6744 27.852 13.7507 27.0369 13.0805 26.0045C12.4103 24.9539 12.0752 23.7947 12.0752 22.5268V16.5494C12.0752 15.2815 12.4103 14.1403 13.0805 13.126C13.7507 12.0935 14.6744 11.2875 15.8518 10.7079C17.0473 10.1101 18.3967 9.81128 19.9001 9.81128C21.4216 9.81128 22.771 10.1101 23.9484 10.7079C25.1439 11.2875 26.0767 12.0935 26.7469 13.126C27.4171 14.1403 27.7522 15.2815 27.7522 16.5494V22.5268C27.7522 23.4686 27.562 24.3562 27.1816 25.1894C26.8012 26.0045 26.2669 26.7018 25.5786 27.2815C26.1763 27.9879 26.9824 28.3049 27.9967 28.2324C27.9967 29.3192 27.4714 29.8626 26.4209 29.8626ZM24.1114 25.3252C24.8722 24.6369 25.2526 23.6951 25.2526 22.4996V16.6037C25.2526 15.209 24.7816 14.1041 23.8397 13.289C22.8978 12.4558 21.5846 12.0392 19.9001 12.0392C18.2337 12.0392 16.9295 12.4558 15.9876 13.289C15.0458 14.1041 14.5748 15.209 14.5748 16.6037L14.5748 21.7117C15.4986 21.4037 16.3409 21.2498 17.1016 21.2498C18.605 21.2498 19.9182 21.5668 21.0412 22.2007C22.1643 22.8166 23.1876 23.8581 24.1114 25.3252ZM19.9001 27.0913C20.9144 27.0913 21.811 26.9373 22.5899 26.6294C21.811 25.3252 20.996 24.4286 20.1446 23.9396C19.3114 23.4505 18.2609 23.206 16.9929 23.206C16.3046 23.206 15.5439 23.36 14.7107 23.6679C14.9643 24.7366 15.5348 25.5788 16.4224 26.1947C17.328 26.7924 18.4873 27.0913 19.9001 27.0913Z" fill="url(#paint0_linear_116_1040)"/>
<defs>
<linearGradient id="paint0_linear_116_1040" x1="12.0752" y1="9.81128" x2="27.1785" y2="30.2124" gradientUnits="userSpaceOnUse">
<stop stop-color="#FE8313"/>
<stop offset="1" stop-color="#E53804"/>
</linearGradient>
</defs>
</svg>
