<svg width="31" height="30" viewBox="0 0 51 50" fill="none" xmlns="http://www.w3.org/2000/svg">
<path d="M25.7764 0C11.9691 0 0.776367 11.1927 0.776367 25C0.776367 38.8073 11.9691 50 25.7764 50C39.5837 50 50.7764 38.8073 50.7764 25C50.7764 11.1927 39.5837 0 25.7764 0ZM19.6566 35.362H14.5941V19.0703H19.6566V35.362ZM17.0941 17.0703C15.4951 17.0703 14.4613 15.9375 14.4613 14.5365C14.4613 13.1068 15.5264 12.0078 17.1592 12.0078C18.792 12.0078 19.792 13.1068 19.8232 14.5365C19.8232 15.9375 18.792 17.0703 17.0941 17.0703ZM38.1462 35.362H33.0837V26.3333C33.0837 24.2318 32.3493 22.8047 30.5186 22.8047C29.1201 22.8047 28.2894 23.7708 27.9222 24.7005C27.7868 25.0312 27.7529 25.5 27.7529 25.9661V35.3594H22.6878V24.2656C22.6878 22.2318 22.6227 20.5312 22.555 19.0677H26.9534L27.1852 21.3307H27.2868C27.9534 20.2682 29.5863 18.7005 32.318 18.7005C35.6488 18.7005 38.1462 20.9323 38.1462 25.7292V35.362Z" fill="#1877F2"/>
</svg>
