<svg width="198" height="41" viewBox="0 0 198 41" fill="none" xmlns="http://www.w3.org/2000/svg">
<rect x="5.03784" y="5.01904" width="30.9434" height="30.9434" rx="5" fill="white"/>
<path d="M28.8429 39.3796H34.954C37.4086 39.3796 39.3984 37.3898 39.3984 34.9352V29.3796H40.5095V34.9352C40.5095 38.0034 38.0222 40.4907 34.954 40.4907H28.8429V39.3796Z" fill="white"/>
<path d="M1.62063 29.3796L1.62063 34.9352C1.62063 37.3898 3.61048 39.3796 6.06508 39.3796H11.6206V40.4907H6.06508C2.99683 40.4907 0.509521 38.0034 0.509521 34.9352L0.509521 29.3796H1.62063Z" fill="white"/>
<path d="M11.6206 1.60183L6.06508 1.60183C3.61048 1.60183 1.62063 3.59168 1.62063 6.04628L1.62063 12.1574H0.509521L0.509521 6.04628C0.509521 2.97803 2.99683 0.490723 6.06508 0.490723L11.6206 0.490723V1.60183Z" fill="white"/>
<path d="M28.8429 1.60183L34.954 1.60183C37.4086 1.60183 39.3984 3.59168 39.3984 6.04628V12.1574H40.5095V6.04628C40.5095 2.97803 38.0222 0.490723 34.954 0.490723L28.8429 0.490723V1.60183Z" fill="white"/>
<path d="M66.9384 30.6794C66.3947 30.6794 65.8963 30.5413 65.4432 30.2652C65.0083 30.0075 64.6549 29.6577 64.383 29.2159C63.1869 29.8234 61.8639 30.1271 60.4141 30.1271C58.9099 30.1271 57.5597 29.8326 56.3636 29.2436C55.1856 28.6361 54.2613 27.8078 53.5908 26.7585C52.9202 25.6909 52.585 24.5128 52.585 23.2242V17.1497C52.585 15.8611 52.9202 14.7015 53.5908 13.6706C54.2613 12.6214 55.1856 11.8022 56.3636 11.2132C57.5597 10.6057 58.9099 10.302 60.4141 10.302C61.9364 10.302 63.2866 10.6057 64.4646 11.2132C65.6607 11.8022 66.594 12.6214 67.2646 13.6706C67.9351 14.7015 68.2704 15.8611 68.2704 17.1497V23.2242C68.2704 24.1814 68.0801 25.0834 67.6995 25.9302C67.3189 26.7585 66.7843 27.4672 66.0956 28.0563C66.6937 28.7742 67.5002 29.0963 68.515 29.0227C68.515 30.1271 67.9895 30.6794 66.9384 30.6794ZM64.6277 26.0682C65.3888 25.3687 65.7694 24.4115 65.7694 23.1966V17.2049C65.7694 15.7875 65.2982 14.6646 64.3558 13.8363C63.4134 12.9895 62.0995 12.5662 60.4141 12.5662C58.7468 12.5662 57.4419 12.9895 56.4995 13.8363C55.5571 14.6646 55.0859 15.7875 55.0859 17.2049V22.3959C56.0102 22.083 56.8529 21.9265 57.6141 21.9265C59.1183 21.9265 60.4322 22.2486 61.5558 22.8929C62.6795 23.5188 63.7034 24.5772 64.6277 26.0682ZM60.4141 27.863C61.429 27.863 62.3261 27.7065 63.1053 27.3936C62.3261 26.0682 61.5105 25.157 60.6587 24.66C59.8251 24.163 58.774 23.9145 57.5053 23.9145C56.8167 23.9145 56.0555 24.071 55.2219 24.3839C55.4756 25.47 56.0464 26.3259 56.9345 26.9518C57.8406 27.5593 59.0005 27.863 60.4141 27.863Z" fill="white"/>
<path d="M82.8897 28.0839C82.8897 29.446 82.1285 30.1271 80.6062 30.1271V28.36C80.7693 28.1943 80.9596 27.9458 81.1771 27.6145L81.0683 27.504C80.5246 28.2956 79.836 28.9306 79.0023 29.4092C78.1868 29.8878 77.2897 30.1271 76.311 30.1271C75.3324 30.1271 74.4625 29.9154 73.7013 29.4921C72.9583 29.0687 72.3784 28.4796 71.9615 27.7249C71.5628 26.9702 71.3635 26.1234 71.3635 25.1847V17.5915C71.3635 16.984 71.5628 16.5422 71.9615 16.2661C72.3602 15.9716 72.9583 15.8243 73.7557 15.8243V25.0742C73.7557 25.9578 74.0094 26.6665 74.5169 27.2003C75.0424 27.7341 75.8127 28.001 76.8275 28.001C77.4981 28.001 78.1143 27.863 78.6761 27.5869C79.2379 27.2923 79.6819 26.9058 80.0081 26.4272C80.3525 25.9302 80.5246 25.3963 80.5246 24.8257V17.5915C80.5246 16.984 80.7149 16.5422 81.0955 16.2661C81.4942 15.9716 82.0923 15.8243 82.8897 15.8243V28.0839Z" fill="white"/>
<path d="M88.4818 13.7535C87.9744 13.7535 87.5485 13.5878 87.2041 13.2564C86.8598 12.9251 86.6876 12.5109 86.6876 12.0139C86.6876 11.5169 86.8598 11.1119 87.2041 10.799C87.5485 10.4677 87.9744 10.302 88.4818 10.302C88.9711 10.302 89.388 10.4677 89.7323 10.799C90.0766 11.1119 90.2488 11.5169 90.2488 12.0139C90.2488 12.5109 90.0766 12.9251 89.7323 13.2564C89.388 13.5878 88.9711 13.7535 88.4818 13.7535ZM87.2857 17.5915C87.2857 16.984 87.476 16.5422 87.8566 16.2661C88.2553 15.9716 88.8533 15.8243 89.6507 15.8243V28.36C89.6507 28.9674 89.4514 29.4184 89.0527 29.713C88.6721 29.9891 88.0831 30.1271 87.2857 30.1271V17.5915Z" fill="white"/>
<path d="M99.5047 30.1271C98.3992 30.1271 97.4115 29.9246 96.5416 29.5197C95.6717 29.1147 94.9921 28.5441 94.5027 27.8078C94.0316 27.0714 93.796 26.2339 93.796 25.2951V20.822C93.796 19.8464 94.0316 18.9812 94.5027 18.2265C94.9921 17.4718 95.6626 16.8828 96.5144 16.4594C97.3662 16.036 98.3448 15.8243 99.4503 15.8243C100.483 15.8243 101.399 15.9808 102.196 16.2937C103.011 16.5882 103.646 17.0116 104.099 17.5639C104.552 18.1161 104.778 18.7419 104.778 19.4414C104.778 19.9016 104.597 20.279 104.235 20.5735C103.89 20.8496 103.437 20.9693 102.876 20.9325C102.876 20.0489 102.558 19.331 101.924 18.7788C101.308 18.2265 100.501 17.9504 99.5047 17.9504C98.5079 17.9504 97.7014 18.2265 97.0853 18.7788C96.4691 19.3126 96.161 20.0121 96.161 20.8772V25.1847C96.161 26.013 96.4782 26.6941 97.1125 27.2279C97.7468 27.7433 98.5623 28.001 99.5591 28.001C100.556 28.001 101.362 27.7249 101.978 27.1727C102.613 26.6205 102.93 25.9118 102.93 25.0466C103.51 25.0098 103.972 25.1294 104.316 25.4055C104.679 25.6633 104.86 26.0314 104.86 26.51C104.86 27.2095 104.633 27.8354 104.18 28.3876C103.727 28.9398 103.093 29.3724 102.277 29.6853C101.462 29.9799 100.538 30.1271 99.5047 30.1271Z" fill="white"/>
<path d="M119.287 29.5197C119.142 29.7038 118.961 29.851 118.744 29.9615C118.526 30.0719 118.281 30.1271 118.01 30.1271C117.72 30.1271 117.466 30.0719 117.248 29.9615C117.031 29.851 116.832 29.6485 116.65 29.354L112.328 22.4787L110.316 24.3011V28.3876C110.316 29.5473 109.537 30.1271 107.979 30.1271V12.29C107.979 10.9647 108.767 10.302 110.344 10.302L110.316 21.8437L116.895 15.8519C117.421 16.3489 117.683 16.7723 117.683 17.1221C117.683 17.3798 117.62 17.5915 117.493 17.7571C117.384 17.9044 117.167 18.1253 116.841 18.4198L113.796 21.1534L119.287 29.5197Z" fill="white"/>
<path d="M136.358 30.1271C134.835 30.1271 133.512 29.9062 132.389 29.4645C131.283 29.0227 130.441 28.4336 129.861 27.6973C129.281 26.961 128.991 26.1695 128.991 25.3227C128.991 24.6232 129.172 24.0894 129.534 23.7212C129.897 23.3347 130.45 23.1414 131.193 23.1414C131.193 24.7061 131.655 25.9026 132.579 26.7309C133.503 27.5408 134.799 27.9458 136.466 27.9458C138.061 27.9458 139.285 27.6789 140.136 27.1451C140.988 26.5928 141.414 25.7829 141.414 24.7153C141.414 24.071 141.251 23.5464 140.925 23.1414C140.617 22.718 140.082 22.3591 139.321 22.0645C138.578 21.7516 137.499 21.4387 136.086 21.1257C134.419 20.7576 133.096 20.3342 132.117 19.8556C131.138 19.3586 130.422 18.7604 129.969 18.0609C129.516 17.3614 129.29 16.4962 129.29 15.4654C129.29 14.4345 129.571 13.5326 130.132 12.7594C130.712 11.9679 131.528 11.3604 132.579 10.9371C133.63 10.5137 134.853 10.302 136.249 10.302C137.572 10.302 138.75 10.4953 139.783 10.8818C140.834 11.25 141.65 11.7838 142.23 12.4833C142.828 13.1644 143.127 13.9375 143.127 14.8027C143.127 15.3365 142.954 15.7599 142.61 16.0728C142.284 16.3674 141.767 16.5146 141.061 16.5146C140.861 15.1156 140.372 14.094 139.593 13.4497C138.831 12.8055 137.717 12.4833 136.249 12.4833C134.835 12.4833 133.748 12.741 132.987 13.2564C132.226 13.7535 131.845 14.4621 131.845 15.3825C131.845 16.0268 131.981 16.5606 132.253 16.984C132.543 17.389 133.023 17.7387 133.694 18.0333C134.382 18.3278 135.343 18.6131 136.575 18.8892C138.424 19.2942 139.874 19.7452 140.925 20.2422C141.994 20.7392 142.764 21.3466 143.235 22.0645C143.707 22.7824 143.942 23.666 143.942 24.7153C143.942 26.3904 143.253 27.7157 141.876 28.6913C140.499 29.6485 138.659 30.1271 136.358 30.1271Z" fill="white"/>
<path d="M147.056 12.3453C147.056 11.6826 147.256 11.1764 147.654 10.8266C148.053 10.4769 148.642 10.302 149.421 10.302V17.5639C149.168 17.8584 148.968 18.1161 148.823 18.337L148.932 18.4474C149.494 17.6743 150.201 17.0484 151.052 16.5698C151.904 16.0728 152.828 15.8243 153.825 15.8243C155.293 15.8243 156.453 16.2661 157.305 17.1497C158.157 18.0333 158.582 19.1745 158.582 20.5735V28.36C158.582 28.9674 158.383 29.4184 157.984 29.713C157.604 29.9891 157.015 30.1271 156.217 30.1271V20.822C156.217 19.9385 155.973 19.239 155.483 18.7235C154.994 18.2081 154.251 17.9504 153.254 17.9504C152.584 17.9504 151.949 18.0977 151.351 18.3922C150.771 18.6683 150.3 19.0549 149.938 19.5519C149.593 20.0305 149.421 20.5551 149.421 21.1257V28.36C149.421 28.9674 149.222 29.4184 148.823 29.713C148.443 29.9891 147.854 30.1271 147.056 30.1271V12.3453Z" fill="white"/>
<path d="M166.621 30.1271C165.063 30.1271 163.803 29.7038 162.843 28.857C161.9 28.0102 161.429 26.8966 161.429 25.516C161.429 24.117 161.927 22.9941 162.924 22.1474C163.921 21.2822 165.235 20.8496 166.866 20.8496C168.606 20.8496 170.037 21.4755 171.161 22.7272L171.27 22.6168C171.07 22.3959 170.844 22.1658 170.59 21.9265V20.7668C170.59 19.828 170.3 19.1009 169.72 18.5855C169.14 18.0701 168.316 17.8124 167.246 17.8124C165.344 17.8124 163.984 18.5763 163.169 20.1041C162.879 19.9569 162.634 19.7636 162.435 19.5243C162.254 19.2666 162.163 19.0089 162.163 18.7512C162.163 18.2541 162.408 17.7847 162.897 17.343C163.386 16.8828 164.03 16.5146 164.827 16.2385C165.643 15.9624 166.494 15.8243 167.382 15.8243C169.104 15.8243 170.454 16.2569 171.433 17.1221C172.43 17.9872 172.928 19.1837 172.928 20.7116V28.2772C172.928 28.9214 172.747 29.3908 172.384 29.6853C172.022 29.9799 171.451 30.1271 170.672 30.1271V28.8294C171.052 28.4244 171.261 28.1851 171.297 28.1115L171.188 28.001C170.01 29.4184 168.488 30.1271 166.621 30.1271ZM167.029 28.2219C168.153 28.2219 169.032 27.9826 169.666 27.504C170.318 27.0254 170.644 26.3627 170.644 25.516C170.644 24.6692 170.327 23.9974 169.693 23.5003C169.059 23.0033 168.189 22.7548 167.083 22.7548C166.05 22.7548 165.235 23.0033 164.637 23.5003C164.057 23.9789 163.767 24.6508 163.767 25.516C163.767 26.3812 164.048 27.053 164.61 27.5316C165.189 27.9918 165.996 28.2219 167.029 28.2219Z" fill="white"/>
<path d="M182.502 17.9504C181.488 17.9504 180.645 18.2633 179.974 18.8892C179.304 19.4967 178.968 20.2422 178.968 21.1257V28.36C178.968 28.9674 178.769 29.4184 178.37 29.713C177.99 29.9891 177.401 30.1271 176.603 30.1271V17.8676C176.603 16.5054 177.365 15.8243 178.887 15.8243V17.5086C178.597 17.8216 178.398 18.0977 178.289 18.337L178.398 18.4474C179.557 16.6987 181.007 15.8243 182.747 15.8243C183.4 15.8243 183.898 15.99 184.242 16.3213C184.587 16.6343 184.759 17.0208 184.759 17.481C184.759 17.8124 184.677 18.1069 184.514 18.3646C184.007 18.0885 183.336 17.9504 182.502 17.9504Z" fill="white"/>
<path d="M191.863 30.1271C190.758 30.1271 189.77 29.9154 188.9 29.4921C188.03 29.0503 187.351 28.452 186.861 27.6973C186.372 26.9242 186.128 26.059 186.128 25.1018V21.0153C186.128 20.0397 186.381 19.1561 186.889 18.3646C187.414 17.5731 188.112 16.9564 188.982 16.5146C189.87 16.0544 190.83 15.8243 191.863 15.8243C192.896 15.8243 193.839 16.0452 194.691 16.487C195.561 16.9288 196.24 17.5362 196.729 18.3094C197.237 19.0825 197.491 19.9569 197.491 20.9325V22.6996C197.491 22.9941 197.382 23.2426 197.164 23.4451C196.947 23.6476 196.684 23.7489 196.376 23.7489H188.438V24.9914C188.438 25.9302 188.728 26.6849 189.308 27.2555C189.906 27.8262 190.758 28.1115 191.863 28.1115C192.969 28.1115 193.812 27.863 194.392 27.366C194.972 26.869 195.261 26.1971 195.261 25.3503C195.805 25.3135 196.258 25.424 196.621 25.6817C197.001 25.921 197.192 26.2799 197.192 26.7585C197.192 27.3476 196.938 27.8998 196.43 28.4152C195.941 28.9306 195.289 29.3448 194.473 29.6577C193.658 29.9707 192.788 30.1271 191.863 30.1271ZM195.289 21.8713V20.9325C195.289 20.0121 194.972 19.2666 194.337 18.6959C193.721 18.1069 192.896 17.8124 191.863 17.8124C190.83 17.8124 189.997 18.1069 189.362 18.6959C188.746 19.2666 188.438 20.0121 188.438 20.9325V21.8713H195.289Z" fill="white"/>
<path d="M26.9306 30.3533C26.3872 30.3533 25.8891 30.2175 25.4363 29.9458C25.0016 29.6922 24.6484 29.348 24.3767 28.9133C23.1812 29.5111 21.8589 29.8099 20.4099 29.8099C18.9065 29.8099 17.557 29.5201 16.3616 28.9405C15.1842 28.3428 14.2604 27.5277 13.5902 26.4952C12.9201 25.4446 12.585 24.2854 12.585 23.0175V17.0401C12.585 15.7722 12.9201 14.6311 13.5902 13.6167C14.2604 12.5843 15.1842 11.7782 16.3616 11.1986C17.557 10.6009 18.9065 10.302 20.4099 10.302C21.9314 10.302 23.2808 10.6009 24.4582 11.1986C25.6536 11.7782 26.5865 12.5843 27.2567 13.6167C27.9268 14.6311 28.2619 15.7722 28.2619 17.0401V23.0175C28.2619 23.9594 28.0718 24.8469 27.6914 25.6801C27.311 26.4952 26.7767 27.1926 26.0884 27.7722C26.6861 28.4786 27.4921 28.7956 28.5065 28.7231C28.5065 29.8099 27.9812 30.3533 26.9306 30.3533ZM24.6212 25.816C25.3819 25.1277 25.7623 24.1858 25.7623 22.9903V17.0945C25.7623 15.6997 25.2914 14.5948 24.3495 13.7797C23.4076 12.9465 22.0944 12.5299 20.4099 12.5299C18.7435 12.5299 17.4393 12.9465 16.4974 13.7797C15.5555 14.5948 15.0846 15.6997 15.0846 17.0945L15.0846 22.2024C16.0084 21.8945 16.8506 21.7405 17.6114 21.7405C19.1148 21.7405 20.428 22.0575 21.551 22.6914C22.674 23.3073 23.6974 24.3488 24.6212 25.816ZM20.4099 27.582C21.4242 27.582 22.3208 27.428 23.0997 27.1201C22.3208 25.816 21.5057 24.9194 20.6544 24.4303C19.8212 23.9412 18.7706 23.6967 17.5027 23.6967C16.8144 23.6967 16.0536 23.8507 15.2204 24.1586C15.474 25.2273 16.0446 26.0695 16.9321 26.6854C17.8378 27.2831 18.997 27.582 20.4099 27.582Z" fill="url(#paint0_linear_415_224)"/>
<defs>
<linearGradient id="paint0_linear_415_224" x1="12.585" y1="10.302" x2="27.6882" y2="30.7032" gradientUnits="userSpaceOnUse">
<stop stop-color="#FE8313"/>
<stop offset="1" stop-color="#E53804"/>
</linearGradient>
</defs>
</svg>
