<svg width="197" height="40" viewBox="0 0 197 40" fill="none" xmlns="http://www.w3.org/2000/svg">
<rect x="4.52832" y="4.52832" width="30.9434" height="30.9434" rx="5" fill="white"/>
<path d="M28.3333 38.8889H34.4444C36.899 38.8889 38.8889 36.899 38.8889 34.4444V28.8889H40V34.4444C40 37.5127 37.5127 40 34.4444 40H28.3333V38.8889Z" fill="white"/>
<path d="M1.11111 28.8889L1.11111 34.4444C1.11111 36.899 3.10096 38.8889 5.55556 38.8889H11.1111V40H5.55556C2.48731 40 0 37.5127 0 34.4444L0 28.8889H1.11111Z" fill="white"/>
<path d="M11.1111 1.11111L5.55556 1.11111C3.10096 1.11111 1.11111 3.10096 1.11111 5.55556L1.11111 11.6667H0L0 5.55556C0 2.48731 2.48731 0 5.55556 0L11.1111 0V1.11111Z" fill="white"/>
<path d="M28.3333 1.11111L34.4444 1.11111C36.899 1.11111 38.8889 3.10096 38.8889 5.55556V11.6667H40V5.55556C40 2.48731 37.5127 0 34.4444 0L28.3333 0V1.11111Z" fill="white"/>
<path d="M66.3534 30.1886C65.8097 30.1886 65.3113 30.0506 64.8582 29.7745C64.4233 29.5168 64.0699 29.167 63.7981 28.7252C62.6019 29.3327 61.279 29.6364 59.8291 29.6364C58.3249 29.6364 56.9748 29.3419 55.7786 28.7528C54.6006 28.1454 53.6764 27.317 53.0058 26.2678C52.3353 25.2001 52 24.022 52 22.7335V16.659C52 15.3704 52.3353 14.2107 53.0058 13.1799C53.6764 12.1307 54.6006 11.3115 55.7786 10.7225C56.9748 10.115 58.3249 9.81128 59.8291 9.81128C61.3515 9.81128 62.7016 10.115 63.8796 10.7225C65.0757 11.3115 66.0091 12.1307 66.6796 13.1799C67.3502 14.2107 67.6854 15.3704 67.6854 16.659V22.7335C67.6854 23.6907 67.4951 24.5927 67.1146 25.4394C66.734 26.2678 66.1993 26.9765 65.5107 27.5655C66.1087 28.2834 66.9152 28.6056 67.9301 28.5319C67.9301 29.6364 67.4045 30.1886 66.3534 30.1886ZM64.0427 25.5775C64.8039 24.878 65.1845 23.9208 65.1845 22.7059V16.7142C65.1845 15.2968 64.7133 14.1739 63.7709 13.3456C62.8285 12.4988 61.5146 12.0754 59.8291 12.0754C58.1618 12.0754 56.857 12.4988 55.9146 13.3456C54.9722 14.1739 54.501 15.2968 54.501 16.7142V21.9052C55.4252 21.5922 56.268 21.4358 57.0291 21.4358C58.5333 21.4358 59.8472 21.7579 60.9709 22.4022C62.0945 23.028 63.1184 24.0865 64.0427 25.5775ZM59.8291 27.3723C60.844 27.3723 61.7411 27.2158 62.5204 26.9029C61.7411 25.5775 60.9256 24.6663 60.0738 24.1693C59.2401 23.6723 58.189 23.4238 56.9204 23.4238C56.2317 23.4238 55.4705 23.5803 54.6369 23.8932C54.8906 24.9793 55.4615 25.8352 56.3495 26.4611C57.2557 27.0685 58.4155 27.3723 59.8291 27.3723Z" fill="white"/>
<path d="M82.3047 27.5931C82.3047 28.9553 81.5436 29.6364 80.0212 29.6364V27.8693C80.1843 27.7036 80.3746 27.4551 80.5921 27.1238L80.4834 27.0133C79.9397 27.8048 79.251 28.4399 78.4173 28.9185C77.6018 29.3971 76.7047 29.6364 75.7261 29.6364C74.7474 29.6364 73.8775 29.4247 73.1164 29.0013C72.3733 28.578 71.7934 27.9889 71.3766 27.2342C70.9779 26.4795 70.7785 25.6327 70.7785 24.6939V17.1007C70.7785 16.4933 70.9779 16.0515 71.3766 15.7754C71.7753 15.4809 72.3733 15.3336 73.1707 15.3336V24.5835C73.1707 25.4671 73.4245 26.1758 73.9319 26.7096C74.4575 27.2434 75.2277 27.5103 76.2426 27.5103C76.9131 27.5103 77.5293 27.3723 78.0911 27.0961C78.6529 26.8016 79.097 26.4151 79.4232 25.9365C79.7675 25.4394 79.9397 24.9056 79.9397 24.335V17.1007C79.9397 16.4933 80.13 16.0515 80.5105 15.7754C80.9092 15.4809 81.5073 15.3336 82.3047 15.3336V27.5931Z" fill="white"/>
<path d="M87.8969 13.2627C87.3894 13.2627 86.9635 13.0971 86.6192 12.7657C86.2748 12.4344 86.1027 12.0202 86.1027 11.5232C86.1027 11.0262 86.2748 10.6212 86.6192 10.3083C86.9635 9.97695 87.3894 9.81128 87.8969 9.81128C88.3862 9.81128 88.803 9.97695 89.1473 10.3083C89.4917 10.6212 89.6638 11.0262 89.6638 11.5232C89.6638 12.0202 89.4917 12.4344 89.1473 12.7657C88.803 13.0971 88.3862 13.2627 87.8969 13.2627ZM86.7007 17.1007C86.7007 16.4933 86.891 16.0515 87.2716 15.7754C87.6703 15.4809 88.2684 15.3336 89.0658 15.3336V27.8693C89.0658 28.4767 88.8664 28.9277 88.4677 29.2222C88.0871 29.4984 87.4981 29.6364 86.7007 29.6364V17.1007Z" fill="white"/>
<path d="M98.9197 29.6364C97.8142 29.6364 96.8265 29.4339 95.9566 29.029C95.0867 28.624 94.4071 28.0533 93.9178 27.317C93.4466 26.5807 93.211 25.7432 93.211 24.8044V20.3313C93.211 19.3557 93.4466 18.4905 93.9178 17.7358C94.4071 16.9811 95.0777 16.392 95.9294 15.9687C96.7812 15.5453 97.7599 15.3336 98.8654 15.3336C99.8984 15.3336 100.814 15.4901 101.611 15.803C102.427 16.0975 103.061 16.5209 103.514 17.0731C103.967 17.6254 104.194 18.2512 104.194 18.9507C104.194 19.4109 104.012 19.7883 103.65 20.0828C103.305 20.3589 102.852 20.4786 102.291 20.4417C102.291 19.5582 101.973 18.8403 101.339 18.288C100.723 17.7358 99.9165 17.4597 98.9197 17.4597C97.923 17.4597 97.1165 17.7358 96.5003 18.288C95.8841 18.8219 95.576 19.5214 95.576 20.3865V24.6939C95.576 25.5223 95.8932 26.2034 96.5275 26.7372C97.1618 27.2526 97.9773 27.5103 98.9741 27.5103C99.9709 27.5103 100.777 27.2342 101.394 26.682C102.028 26.1297 102.345 25.421 102.345 24.5559C102.925 24.5191 103.387 24.6387 103.731 24.9148C104.094 25.1725 104.275 25.5407 104.275 26.0193C104.275 26.7188 104.049 27.3446 103.595 27.8969C103.142 28.4491 102.508 28.8817 101.693 29.1946C100.877 29.4891 99.9527 29.6364 98.9197 29.6364Z" fill="white"/>
<path d="M118.702 29.029C118.557 29.213 118.376 29.3603 118.159 29.4707C117.941 29.5812 117.697 29.6364 117.425 29.6364C117.135 29.6364 116.881 29.5812 116.664 29.4707C116.446 29.3603 116.247 29.1578 116.065 28.8633L111.743 21.988L109.731 23.8104V27.8969C109.731 29.0566 108.952 29.6364 107.394 29.6364V11.7993C107.394 10.474 108.182 9.81128 109.759 9.81128L109.731 21.3529L116.31 15.3612C116.836 15.8582 117.098 16.2816 117.098 16.6313C117.098 16.8891 117.035 17.1007 116.908 17.2664C116.799 17.4137 116.582 17.6346 116.256 17.9291L113.211 20.6626L118.702 29.029Z" fill="white"/>
<path d="M135.773 29.6364C134.25 29.6364 132.927 29.4155 131.804 28.9737C130.698 28.5319 129.856 27.9429 129.276 27.2066C128.696 26.4703 128.406 25.6787 128.406 24.832C128.406 24.1325 128.587 23.5987 128.949 23.2305C129.312 22.844 129.865 22.6507 130.608 22.6507C130.608 24.2153 131.07 25.4118 131.994 26.2402C132.918 27.0501 134.214 27.4551 135.881 27.4551C137.476 27.4551 138.7 27.1882 139.551 26.6544C140.403 26.1021 140.829 25.2922 140.829 24.2245C140.829 23.5803 140.666 23.0556 140.34 22.6507C140.032 22.2273 139.497 21.8683 138.736 21.5738C137.993 21.2609 136.914 20.948 135.501 20.635C133.834 20.2669 132.511 19.8435 131.532 19.3649C130.553 18.8679 129.837 18.2696 129.384 17.5701C128.931 16.8706 128.705 16.0055 128.705 14.9746C128.705 13.9438 128.986 13.0418 129.547 12.2687C130.127 11.4772 130.943 10.8697 131.994 10.4463C133.045 10.023 134.268 9.81128 135.664 9.81128C136.987 9.81128 138.165 10.0046 139.198 10.3911C140.249 10.7593 141.065 11.2931 141.645 11.9926C142.243 12.6737 142.542 13.4468 142.542 14.312C142.542 14.8458 142.369 15.2692 142.025 15.5821C141.699 15.8766 141.182 16.0239 140.476 16.0239C140.276 14.6249 139.787 13.6033 139.008 12.959C138.246 12.3147 137.132 11.9926 135.664 11.9926C134.25 11.9926 133.163 12.2503 132.402 12.7657C131.641 13.2627 131.26 13.9714 131.26 14.8918C131.26 15.5361 131.396 16.0699 131.668 16.4933C131.958 16.8983 132.438 17.248 133.109 17.5425C133.797 17.8371 134.758 18.1224 135.99 18.3985C137.839 18.8035 139.289 19.2544 140.34 19.7515C141.409 20.2485 142.179 20.8559 142.65 21.5738C143.122 22.2917 143.357 23.1753 143.357 24.2245C143.357 25.8996 142.668 27.225 141.291 28.2006C139.914 29.1578 138.074 29.6364 135.773 29.6364Z" fill="white"/>
<path d="M146.471 11.8545C146.471 11.1919 146.671 10.6856 147.069 10.3359C147.468 9.98615 148.057 9.81128 148.836 9.81128V17.0731C148.583 17.3677 148.383 17.6254 148.238 17.8463L148.347 17.9567C148.909 17.1836 149.616 16.5577 150.467 16.0791C151.319 15.5821 152.243 15.3336 153.24 15.3336C154.708 15.3336 155.868 15.7754 156.72 16.659C157.572 17.5425 157.997 18.6838 157.997 20.0828V27.8693C157.997 28.4767 157.798 28.9277 157.399 29.2222C157.019 29.4984 156.43 29.6364 155.632 29.6364V20.3313C155.632 19.4477 155.388 18.7482 154.898 18.2328C154.409 17.7174 153.666 17.4597 152.669 17.4597C151.999 17.4597 151.364 17.607 150.766 17.9015C150.186 18.1776 149.715 18.5642 149.353 19.0612C149.008 19.5398 148.836 20.0644 148.836 20.635V27.8693C148.836 28.4767 148.637 28.9277 148.238 29.2222C147.858 29.4984 147.269 29.6364 146.471 29.6364V11.8545Z" fill="white"/>
<path d="M166.036 29.6364C164.478 29.6364 163.218 29.213 162.258 28.3663C161.315 27.5195 160.844 26.4059 160.844 25.0253C160.844 23.6263 161.342 22.5034 162.339 21.6567C163.336 20.7915 164.65 20.3589 166.281 20.3589C168.021 20.3589 169.452 20.9848 170.576 22.2365L170.685 22.1261C170.485 21.9052 170.259 21.6751 170.005 21.4358V20.2761C170.005 19.3373 169.715 18.6102 169.135 18.0948C168.555 17.5793 167.731 17.3216 166.661 17.3216C164.759 17.3216 163.399 18.0856 162.584 19.6134C162.294 19.4661 162.049 19.2729 161.85 19.0336C161.669 18.7758 161.578 18.5181 161.578 18.2604C161.578 17.7634 161.823 17.294 162.312 16.8522C162.801 16.392 163.445 16.0239 164.242 15.7478C165.058 15.4717 165.909 15.3336 166.797 15.3336C168.519 15.3336 169.869 15.7662 170.848 16.6313C171.845 17.4965 172.343 18.693 172.343 20.2209V27.7864C172.343 28.4307 172.162 28.9001 171.799 29.1946C171.437 29.4891 170.866 29.6364 170.087 29.6364V28.3387C170.467 27.9337 170.676 27.6944 170.712 27.6208L170.603 27.5103C169.425 28.9277 167.903 29.6364 166.036 29.6364ZM166.444 27.7312C167.568 27.7312 168.447 27.4919 169.081 27.0133C169.733 26.5347 170.06 25.872 170.06 25.0253C170.06 24.1785 169.742 23.5066 169.108 23.0096C168.474 22.5126 167.604 22.2641 166.498 22.2641C165.465 22.2641 164.65 22.5126 164.052 23.0096C163.472 23.4882 163.182 24.1601 163.182 25.0253C163.182 25.8904 163.463 26.5623 164.025 27.0409C164.605 27.5011 165.411 27.7312 166.444 27.7312Z" fill="white"/>
<path d="M181.917 17.4597C180.903 17.4597 180.06 17.7726 179.389 18.3985C178.719 19.0059 178.383 19.7515 178.383 20.635V27.8693C178.383 28.4767 178.184 28.9277 177.785 29.2222C177.405 29.4984 176.816 29.6364 176.018 29.6364V17.3769C176.018 16.0147 176.78 15.3336 178.302 15.3336V17.0179C178.012 17.3308 177.813 17.607 177.704 17.8463L177.813 17.9567C178.972 16.208 180.422 15.3336 182.162 15.3336C182.815 15.3336 183.313 15.4993 183.657 15.8306C184.002 16.1435 184.174 16.5301 184.174 16.9903C184.174 17.3216 184.092 17.6162 183.929 17.8739C183.422 17.5978 182.751 17.4597 181.917 17.4597Z" fill="white"/>
<path d="M191.278 29.6364C190.173 29.6364 189.185 29.4247 188.315 29.0013C187.445 28.5596 186.766 27.9613 186.277 27.2066C185.787 26.4335 185.543 25.5683 185.543 24.6111V20.5246C185.543 19.549 185.796 18.6654 186.304 17.8739C186.829 17.0823 187.527 16.4657 188.397 16.0239C189.285 15.5637 190.245 15.3336 191.278 15.3336C192.311 15.3336 193.254 15.5545 194.106 15.9963C194.976 16.4381 195.655 17.0455 196.144 17.8186C196.652 18.5918 196.906 19.4661 196.906 20.4417V22.2089C196.906 22.5034 196.797 22.7519 196.579 22.9544C196.362 23.1569 196.099 23.2581 195.791 23.2581H187.853V24.5007C187.853 25.4394 188.143 26.1942 188.723 26.7648C189.321 27.3354 190.173 27.6208 191.278 27.6208C192.384 27.6208 193.227 27.3723 193.807 26.8752C194.387 26.3782 194.677 25.7064 194.677 24.8596C195.22 24.8228 195.673 24.9332 196.036 25.1909C196.416 25.4302 196.607 25.7892 196.607 26.2678C196.607 26.8568 196.353 27.4091 195.845 27.9245C195.356 28.4399 194.704 28.8541 193.888 29.167C193.073 29.4799 192.203 29.6364 191.278 29.6364ZM194.704 21.3805V20.4417C194.704 19.5214 194.387 18.7758 193.752 18.2052C193.136 17.6162 192.311 17.3216 191.278 17.3216C190.245 17.3216 189.412 17.6162 188.777 18.2052C188.161 18.7758 187.853 19.5214 187.853 20.4417V21.3805H194.704Z" fill="white"/>
<path d="M26.4209 29.8626C25.8775 29.8626 25.3793 29.7268 24.9265 29.4551C24.4918 29.2015 24.1386 28.8573 23.8669 28.4226C22.6714 29.0203 21.3492 29.3192 19.9001 29.3192C18.3967 29.3192 17.0473 29.0294 15.8518 28.4498C14.6744 27.852 13.7507 27.0369 13.0805 26.0045C12.4103 24.9539 12.0752 23.7947 12.0752 22.5268V16.5494C12.0752 15.2815 12.4103 14.1403 13.0805 13.126C13.7507 12.0935 14.6744 11.2875 15.8518 10.7079C17.0473 10.1101 18.3967 9.81128 19.9001 9.81128C21.4216 9.81128 22.771 10.1101 23.9484 10.7079C25.1439 11.2875 26.0767 12.0935 26.7469 13.126C27.4171 14.1403 27.7522 15.2815 27.7522 16.5494V22.5268C27.7522 23.4686 27.562 24.3562 27.1816 25.1894C26.8012 26.0045 26.2669 26.7018 25.5786 27.2815C26.1763 27.9879 26.9824 28.3049 27.9967 28.2324C27.9967 29.3192 27.4714 29.8626 26.4209 29.8626ZM24.1114 25.3252C24.8722 24.6369 25.2526 23.6951 25.2526 22.4996V16.6037C25.2526 15.209 24.7816 14.1041 23.8397 13.289C22.8978 12.4558 21.5846 12.0392 19.9001 12.0392C18.2337 12.0392 16.9295 12.4558 15.9876 13.289C15.0458 14.1041 14.5748 15.209 14.5748 16.6037L14.5748 21.7117C15.4986 21.4037 16.3409 21.2498 17.1016 21.2498C18.605 21.2498 19.9182 21.5668 21.0412 22.2007C22.1643 22.8166 23.1876 23.8581 24.1114 25.3252ZM19.9001 27.0913C20.9144 27.0913 21.811 26.9373 22.5899 26.6294C21.811 25.3252 20.996 24.4286 20.1446 23.9396C19.3114 23.4505 18.2609 23.206 16.9929 23.206C16.3046 23.206 15.5439 23.36 14.7107 23.6679C14.9643 24.7366 15.5348 25.5788 16.4224 26.1947C17.328 26.7924 18.4873 27.0913 19.9001 27.0913Z" fill="url(#paint0_linear_415_1909)"/>
<defs>
<linearGradient id="paint0_linear_415_1909" x1="12.0752" y1="9.81128" x2="27.1785" y2="30.2124" gradientUnits="userSpaceOnUse">
<stop stop-color="#FE8313"/>
<stop offset="1" stop-color="#E53804"/>
</linearGradient>
</defs>
</svg>
