<svg width="21" height="19" viewBox="0 0 21 19" fill="none" xmlns="http://www.w3.org/2000/svg">
<path d="M0 9.45037L5.24955 13.65V10.5003H14.6987V8.40046H5.24955V5.25073L0 9.45037Z" fill="white"/>
<path d="M11.5498 3.60761e-05C10.3083 -0.00340626 9.07847 0.239532 7.93153 0.714777C6.7846 1.19002 5.74337 1.88813 4.86816 2.76865L6.35274 4.25322C7.74072 2.86524 9.58646 2.09986 11.5498 2.09986C13.5131 2.09986 15.3589 2.86524 16.7468 4.25322C18.1348 5.6412 18.9002 7.48694 18.9002 9.45027C18.9002 11.4136 18.1348 13.2593 16.7468 14.6473C15.3589 16.0353 13.5131 16.8007 11.5498 16.8007C9.58646 16.8007 7.74072 16.0353 6.35274 14.6473L4.86816 16.1319C6.65196 17.9167 9.02476 18.9005 11.5498 18.9005C14.0748 18.9005 16.4476 17.9167 18.2314 16.1319C20.0163 14.3481 21 11.9753 21 9.45027C21 6.92524 20.0163 4.55244 18.2314 2.76865C17.3562 1.88813 16.315 1.19002 15.168 0.714777C14.0211 0.239532 12.7913 -0.00340626 11.5498 3.60761e-05Z" fill="white"/>
</svg>
