<svg width="230" height="257" viewBox="0 0 279 316" fill="none" xmlns="http://www.w3.org/2000/svg">
<circle cx="139.338" cy="176.662" r="139.338" fill="#FFE1C6"/>
<mask id="mask0_415_563" style="mask-type:alpha" maskUnits="userSpaceOnUse" x="0" y="37" width="279" height="279">
<circle cx="139.338" cy="176.662" r="139.338" fill="#D9D9D9"/>
</mask>
<g mask="url(#mask0_415_563)">
<rect x="36.731" y="28.9399" width="206.412" height="314.209" rx="20" fill="white"/>
</g>
<g filter="url(#filter0_d_415_563)">
<path d="M36.731 48.9399C36.731 37.8943 45.6853 28.9399 56.731 28.9399H223.143C234.188 28.9399 243.143 37.8942 243.143 48.9399V132.745V135.901C243.143 146.947 234.188 155.901 223.143 155.901H56.731C45.6853 155.901 36.731 146.947 36.731 135.901V125.758V48.9399Z" fill="white"/>
</g>
<rect x="7.58594" y="37.9287" width="20.3617" height="3.99249" rx="1.99625" fill="#D0EAFF"/>
<rect x="48.3091" width="20.3617" height="3.99249" rx="1.99625" transform="rotate(90 48.3091 0)" fill="#D0EAFF"/>
<rect x="20.9048" y="9.98145" width="20.3617" height="3.99249" rx="1.99625" transform="rotate(47.3934 20.9048 9.98145)" fill="#D0EAFF"/>
<rect x="60.2866" y="199.419" width="137.741" height="8.94614" rx="4.47307" fill="#E6F4FF"/>
<rect x="60.2866" y="219.101" width="159.7" height="8.94614" rx="4.47307" fill="#E6F4FF"/>
<rect x="60.2866" y="238.782" width="137.741" height="8.94614" rx="4.47307" fill="#E6F4FF"/>
<circle cx="91.428" cy="86.4314" r="5.19024" fill="#F0590B"/>
<circle cx="188.845" cy="86.4314" r="5.19024" fill="#F0590B"/>
<path d="M121.372 139.532C121.372 136.225 124.053 133.543 127.361 133.543H152.913C156.22 133.543 158.901 136.225 158.901 139.532H121.372Z" fill="#F0590B"/>
<defs>
<filter id="filter0_d_415_563" x="20.731" y="4.93994" width="238.412" height="158.961" filterUnits="userSpaceOnUse" color-interpolation-filters="sRGB">
<feFlood flood-opacity="0" result="BackgroundImageFix"/>
<feColorMatrix in="SourceAlpha" type="matrix" values="0 0 0 0 0 0 0 0 0 0 0 0 0 0 0 0 0 0 127 0" result="hardAlpha"/>
<feOffset dy="-8"/>
<feGaussianBlur stdDeviation="8"/>
<feComposite in2="hardAlpha" operator="out"/>
<feColorMatrix type="matrix" values="0 0 0 0 0 0 0 0 0 0 0 0 0 0 0 0 0 0 0.05 0"/>
<feBlend mode="normal" in2="BackgroundImageFix" result="effect1_dropShadow_415_563"/>
<feBlend mode="normal" in="SourceGraphic" in2="effect1_dropShadow_415_563" result="shape"/>
</filter>
</defs>
</svg>
