<svg width="15" height="20" viewBox="0 0 15 20" fill="none" xmlns="http://www.w3.org/2000/svg">
<path d="M2.47578 0.438815L3.60303 0.0948109C4.6601 -0.227193 5.78946 0.293813 6.24204 1.31183L7.14301 3.33985C7.53482 4.22286 7.31691 5.26187 6.60452 5.90788L4.61924 7.7059C4.74182 8.78191 5.12106 9.84093 5.75593 10.8829C6.35882 11.8911 7.16749 12.7735 8.13407 13.478L10.5185 12.718C11.4216 12.431 12.4063 12.762 12.9595 13.539L14.2512 15.349C14.8955 16.253 14.7792 17.499 13.9799 18.265L13.124 19.086C12.2712 19.903 11.0528 20.2 9.92658 19.864C7.26558 19.072 4.82144 16.721 2.58997 12.811C0.355355 8.89491 -0.433517 5.57088 0.2244 2.84284C0.500976 1.69483 1.3569 0.779819 2.47578 0.438815Z" fill="url(#paint0_linear_415_1180)"/>
<defs>
<linearGradient id="paint0_linear_415_1180" x1="14.6667" y1="-5.02618e-07" x2="19.2344" y2="13.4846" gradientUnits="userSpaceOnUse">
<stop stop-color="#FE8313"/>
<stop offset="1" stop-color="#E53804"/>
</linearGradient>
</defs>
</svg>
