<svg width="31" height="30" viewBox="0 0 51 50" fill="none" xmlns="http://www.w3.org/2000/svg">
<circle cx="25.7764" cy="25" r="25" fill="#F2F8FC"/>
<path d="M15.7764 20V15H20.7764V17H17.7764V20H15.7764ZM15.7764 35V30H17.7764V33H20.7764V35H15.7764ZM30.7764 35V33H33.7764V30H35.7764V35H30.7764ZM33.7764 20V17H30.7764V15H35.7764V20H33.7764ZM31.2764 30.5H32.7764V32H31.2764V30.5ZM31.2764 27.5H32.7764V29H31.2764V27.5ZM29.7764 29H31.2764V30.5H29.7764V29ZM28.2764 30.5H29.7764V32H28.2764V30.5ZM26.7764 29H28.2764V30.5H26.7764V29ZM29.7764 26H31.2764V27.5H29.7764V26ZM28.2764 27.5H29.7764V29H28.2764V27.5ZM26.7764 26H28.2764V27.5H26.7764V26ZM32.7764 18V24H26.7764V18H32.7764ZM24.7764 26V32H18.7764V26H24.7764ZM24.7764 18V24H18.7764V18H24.7764ZM23.2764 30.5V27.5H20.2764V30.5H23.2764ZM23.2764 22.5V19.5H20.2764V22.5H23.2764ZM31.2764 22.5V19.5H28.2764V22.5H31.2764Z" fill="#8B9FBC"/>
</svg>
