<svg width="21" height="20" viewBox="0 0 21 20" fill="none" xmlns="http://www.w3.org/2000/svg">
<path d="M0.776367 5V0H5.77637V2H2.77637V5H0.776367ZM0.776367 20V15H2.77637V18H5.77637V20H0.776367ZM15.7764 20V18H18.7764V15H20.7764V20H15.7764ZM18.7764 5V2H15.7764V0H20.7764V5H18.7764ZM16.2764 15.5H17.7764V17H16.2764V15.5ZM16.2764 12.5H17.7764V14H16.2764V12.5ZM14.7764 14H16.2764V15.5H14.7764V14ZM13.2764 15.5H14.7764V17H13.2764V15.5ZM11.7764 14H13.2764V15.5H11.7764V14ZM14.7764 11H16.2764V12.5H14.7764V11ZM13.2764 12.5H14.7764V14H13.2764V12.5ZM11.7764 11H13.2764V12.5H11.7764V11ZM17.7764 3V9H11.7764V3H17.7764ZM9.77637 11V17H3.77637V11H9.77637ZM9.77637 3V9H3.77637V3H9.77637ZM8.27637 15.5V12.5H5.27637V15.5H8.27637ZM8.27637 7.5V4.5H5.27637V7.5H8.27637ZM16.2764 7.5V4.5H13.2764V7.5H16.2764Z" fill="#8B9FBC"/>
</svg>
