<svg width="16" height="21" viewBox="0 0 16 21" fill="none" xmlns="http://www.w3.org/2000/svg">
<path d="M12 4L10.58 5.42L8.99 3.83V15H7.01V3.83L5.42 5.42L4 4L8 0L12 4ZM16 9V19C16 20.1 15.1 21 14 21H2C1.46957 21 0.960859 20.7893 0.585786 20.4142C0.210714 20.0391 0 19.5304 0 19V9C0 7.89 0.89 7 2 7H5V9H2V19H14V9H11V7H14C14.5304 7 15.0391 7.21071 15.4142 7.58579C15.7893 7.96086 16 8.46957 16 9Z" fill="url(#paint0_linear_885_22)"/>
<defs>
<linearGradient id="paint0_linear_885_22" x1="0" y1="0" x2="18.0705" y2="1.55977" gradientUnits="userSpaceOnUse">
<stop stop-color="#FE8313"/>
<stop offset="1" stop-color="#E53804"/>
</linearGradient>
</defs>
</svg>
