<svg width="22" height="22" viewBox="0 0 22 22" fill="none" xmlns="http://www.w3.org/2000/svg">
<path d="M10.9992 0C9.78421 0 8.79939 0.984972 8.79939 2.19999V8.79996H2.19985C0.984828 8.79996 0 9.78493 0 11C0 12.215 0.984828 13.1999 2.19985 13.1999H8.79939V19.8C8.79939 21.015 9.78421 22 10.9992 22C12.2143 22 13.1995 21.015 13.1995 19.8V13.1999H19.8002C21.0152 13.1999 22 12.215 22 11C22 9.78493 21.0152 8.79996 19.8002 8.79996H13.1995V2.19999C13.1995 0.984972 12.2143 0 10.9992 0Z" fill="url(#paint0_linear_415_496)"/>
<defs>
<linearGradient id="paint0_linear_415_496" x1="5.225" y1="3.575" x2="14.2142" y2="23.8655" gradientUnits="userSpaceOnUse">
<stop stop-color="#FE8313"/>
<stop offset="1" stop-color="#E53804"/>
</linearGradient>
</defs>
</svg>
