<svg width="20" height="20" viewBox="0 0 20 20" fill="none" xmlns="http://www.w3.org/2000/svg">
<path d="M20.0012 10.0009C20.0012 8.33719 19.5862 6.69976 18.7937 5.23693C18.0012 3.7741 16.8563 2.5321 15.4627 1.62342C14.0691 0.714739 12.4708 0.168101 10.8126 0.0330203C9.15435 -0.10206 7.48864 0.178686 5.96632 0.849826C4.444 1.52097 3.11316 2.5613 2.09437 3.87657C1.07558 5.19185 0.401024 6.74052 0.131805 8.38229C-0.137413 10.0241 0.00721365 11.7071 0.552585 13.2788C1.09796 14.8506 2.02684 16.2615 3.25509 17.3837L3.37274 17.4817C5.19937 19.104 7.55755 20 10.0006 20C12.4436 20 14.8018 19.104 16.6284 17.4817L16.7461 17.3837C17.7726 16.4474 18.5924 15.3071 19.1529 14.0359C19.7134 12.7646 20.0023 11.3903 20.0012 10.0009ZM1.17654 10.0009C1.17457 8.56033 1.52532 7.1412 2.19815 5.86743C2.87098 4.59365 3.84543 3.50398 5.03641 2.69356C6.22738 1.88314 7.59866 1.37664 9.03048 1.21827C10.4623 1.0599 11.9111 1.25448 13.2504 1.78503C14.5897 2.31558 15.7788 3.16596 16.7137 4.26191C17.6486 5.35785 18.301 6.66602 18.6139 8.07219C18.9268 9.47835 18.8907 10.9397 18.5087 12.3287C18.1267 13.7177 17.4105 14.992 16.4225 16.0404C15.4959 14.6071 14.1148 13.5264 12.5007 12.9716C13.3065 12.435 13.9182 11.6532 14.2453 10.7421C14.5725 9.83088 14.5978 8.83861 14.3174 7.91195C14.037 6.9853 13.466 6.17346 12.6885 5.59646C11.9111 5.01945 10.9687 4.70792 10.0006 4.70792C9.03244 4.70792 8.09 5.01945 7.3126 5.59646C6.5352 6.17346 5.96411 6.9853 5.68375 7.91195C5.4034 8.83861 5.42867 9.83088 5.75583 10.7421C6.08299 11.6532 6.69467 12.435 7.50043 12.9716C5.88631 13.5264 4.50522 14.6071 3.57864 16.0404C2.03438 14.409 1.17464 12.2473 1.17654 10.0009ZM6.66705 9.21653C6.66705 8.55722 6.86256 7.91271 7.22885 7.36452C7.59514 6.81632 8.11577 6.38906 8.72489 6.13675C9.33401 5.88444 10.0043 5.81843 10.6509 5.94705C11.2976 6.07568 11.8915 6.39317 12.3577 6.85937C12.8239 7.32557 13.1414 7.91955 13.27 8.56619C13.3987 9.21283 13.3327 9.88309 13.0804 10.4922C12.828 11.1013 12.4008 11.622 11.8526 11.9883C11.3044 12.3545 10.6599 12.5501 10.0006 12.5501C9.11727 12.5475 8.27087 12.1954 7.64628 11.5708C7.02168 10.9462 6.66964 10.0998 6.66705 9.21653ZM4.45124 16.864C5.02795 15.908 5.84189 15.1171 6.81416 14.5681C7.78642 14.0191 8.88403 13.7307 10.0006 13.7307C11.1171 13.7307 12.2147 14.0191 13.187 14.5681C14.1593 15.1171 14.9732 15.908 15.5499 16.864C13.9786 18.1327 12.0201 18.8246 10.0006 18.8246C7.98107 18.8246 6.02253 18.1327 4.45124 16.864Z" fill="#BDCADE"/>
</svg>
