<svg width="11" height="15" viewBox="0 0 16 20" fill="none" xmlns="http://www.w3.org/2000/svg">
<path d="M2.79299 0.465884L3.95446 0.116548C4.59072 -0.0753143 5.27505 -0.0291279 5.87976 0.246489C6.48447 0.522106 6.96824 1.00832 7.2408 1.61441L8.13853 3.6109C8.37288 4.13222 8.43814 4.71383 8.32515 5.27412C8.21216 5.83441 7.9266 6.34527 7.50853 6.73502L6.02161 8.12142C5.97815 8.16192 5.95061 8.21665 5.94398 8.27569C5.90019 8.6708 6.16792 9.44014 6.78498 10.51C7.23384 11.2873 7.6409 11.8337 7.98625 12.1393C8.22711 12.3533 8.35948 12.399 8.41621 12.3831L10.4167 11.771C10.963 11.6039 11.5479 11.612 12.0894 11.794C12.6309 11.9761 13.1019 12.323 13.4363 12.7862L14.7112 14.5538C15.0989 15.0913 15.2784 15.7513 15.2164 16.4111C15.1543 17.071 14.8549 17.6859 14.3738 18.1417L13.492 18.9777C13.024 19.4209 12.4492 19.7353 11.8236 19.8904C11.198 20.0455 10.5428 20.0358 9.92203 19.8625C7.18109 19.0971 4.72379 16.7842 2.52228 12.9713C0.31778 9.1535 -0.455537 5.86517 0.257069 3.10531C0.41748 2.4846 0.735078 1.91568 1.17925 1.45338C1.62342 0.991078 2.17919 0.650986 2.79299 0.465884ZM3.22394 1.89607C2.85576 2.007 2.52236 2.21086 2.25583 2.48802C1.9893 2.76518 1.79863 3.10631 1.70219 3.47854C1.10304 5.79948 1.78877 8.71459 3.81512 12.2249C5.83848 15.7302 8.01711 17.7804 10.3241 18.4253C10.6965 18.5291 11.0893 18.5346 11.4645 18.4415C11.8396 18.3483 12.1843 18.1597 12.4649 17.8939L13.3477 17.0579C13.5665 16.8506 13.7026 16.571 13.7308 16.271C13.759 15.971 13.6773 15.671 13.501 15.4266L12.2271 13.66C12.075 13.4493 11.8608 13.2914 11.6145 13.2085C11.3682 13.1257 11.1021 13.1221 10.8536 13.1982L8.84815 13.8123C7.6837 14.1587 6.62673 13.2221 5.49213 11.2565C4.72777 9.93279 4.37147 8.90768 4.46005 8.11047C4.50683 7.69644 4.69891 7.31426 5.00346 7.02962L6.49038 5.64322C6.6805 5.46608 6.81037 5.23386 6.86178 4.97914C6.91319 4.72442 6.88355 4.46 6.77701 4.22299L5.87929 2.2265C5.7554 1.95122 5.53564 1.73037 5.26098 1.60513C4.98631 1.47988 4.67548 1.45877 4.3864 1.54574L3.22394 1.89607Z" fill="#BDCADE"/>
</svg>
