<svg width="7" height="15" viewBox="0 0 12 20" fill="none" xmlns="http://www.w3.org/2000/svg">
<path d="M11.4962 0.493276C11.8321 0.822125 12 1.24066 12 1.74888C12 2.2571 11.8321 2.67564 11.4962 3.00449L4.35114 10L11.4962 16.9955C11.8321 17.3244 12 17.7429 12 18.2511C12 18.7593 11.8321 19.1779 11.4962 19.5067C11.1603 19.8356 10.7328 20 10.2137 20C9.69466 20 9.26718 19.8356 8.9313 19.5067L0.503818 11.2556C0.320611 11.0762 0.190535 10.8819 0.113588 10.6726C0.0378629 10.4634 -2.4215e-07 10.2392 -2.4215e-07 10C-2.4215e-07 9.76084 0.0378629 9.53662 0.113588 9.32735C0.190535 9.11809 0.320611 8.92377 0.503818 8.7444L8.9313 0.493276C9.26718 0.164427 9.69466 -3.70725e-07 10.2137 -3.70725e-07C10.7328 -3.70725e-07 11.1603 0.164427 11.4962 0.493276Z" fill="white"/>
</svg>
