<svg width="20" height="21" viewBox="0 0 24 21" fill="none" xmlns="http://www.w3.org/2000/svg">
<path d="M10.4101 0C10.1211 0 9.83223 0.0663159 9.55443 0.16579L1.37605 3.53684C0.83241 3.75828 0.399432 4.18538 0.172305 4.72426C-0.0548218 5.26314 -0.0575047 5.86968 0.164846 6.41053L5.67637 19.6184C5.83917 20.019 6.11644 20.3634 6.47389 20.6089C6.83135 20.8545 7.25332 20.9904 7.68763 21C7.97654 21 8.27656 20.9668 8.56547 20.8342L16.755 17.4632C17.1502 17.2963 17.4891 17.0202 17.7313 16.6676C17.9736 16.3149 18.1091 15.9006 18.1217 15.4737C18.1328 15.1974 18.0773 14.8768 17.9773 14.5895L12.4213 1.38158C12.2643 0.977074 11.9884 0.628962 11.6297 0.38255C11.271 0.136138 10.846 0.00283803 10.4101 0ZM14.277 0L18.1106 9.22895V2.21053C18.1106 1.62426 17.8765 1.062 17.4597 0.647448C17.0429 0.232894 16.4777 0 15.8882 0M20.3441 1.70211V11.6826L23.0443 5.20579C23.155 4.93806 23.2115 4.65122 23.2105 4.36173C23.2095 4.07224 23.1511 3.78579 23.0386 3.51882C22.926 3.25184 22.7616 3.00958 22.5548 2.80594C22.3479 2.60229 22.1027 2.44127 21.8331 2.33211M10.4101 2.17737L15.9438 15.4626L7.73207 18.8447L2.19833 5.57053" fill="white"/>
</svg>
