<svg width="16" height="17" viewBox="0 0 21 22" fill="none" xmlns="http://www.w3.org/2000/svg">
<path d="M4.66667 16.7544H16.3333C16.5667 16.7544 16.7417 16.6475 16.8583 16.4336C16.975 16.2197 16.9556 16.0155 16.8 15.8211L13.5917 11.5336C13.475 11.378 13.3194 11.3002 13.125 11.3002C12.9306 11.3002 12.775 11.378 12.6583 11.5336L9.625 15.5877L7.46667 12.7002C7.35 12.5447 7.19444 12.4669 7 12.4669C6.80556 12.4669 6.65 12.5447 6.53333 12.7002L4.2 15.8211C4.04444 16.0155 4.025 16.2197 4.14167 16.4336C4.25833 16.6475 4.43333 16.7544 4.66667 16.7544ZM2.33333 21.4211C1.69167 21.4211 1.14217 21.1928 0.684833 20.7362C0.228278 20.2789 0 19.7294 0 19.0877V2.75441C0 2.11275 0.228278 1.56325 0.684833 1.10591C1.14217 0.649359 1.69167 0.421082 2.33333 0.421082H18.6667C19.3083 0.421082 19.8578 0.649359 20.3152 1.10591C20.7717 1.56325 21 2.11275 21 2.75441V19.0877C21 19.7294 20.7717 20.2789 20.3152 20.7362C19.8578 21.1928 19.3083 21.4211 18.6667 21.4211H2.33333ZM2.33333 19.0877H18.6667V2.75441H2.33333V19.0877Z" fill="white"/>
</svg>
