<svg width="12" height="13" viewBox="0 0 12 13" fill="none" xmlns="http://www.w3.org/2000/svg">
<path d="M1.17073 12.0146C0.84878 12.0146 0.573073 11.8999 0.34361 11.6704C0.114537 11.4414 0 11.1659 0 10.8439V2.64878C0 2.32683 0.114537 2.05112 0.34361 1.82166C0.573073 1.59259 0.84878 1.47805 1.17073 1.47805H6.39512L5.22439 2.64878H1.17073V10.8439H9.36585V6.77561L10.5366 5.60488V10.8439C10.5366 11.1659 10.422 11.4414 10.193 11.6704C9.96351 11.8999 9.6878 12.0146 9.36585 12.0146H1.17073ZM7.71219 1.81463L8.54634 2.63415L4.68293 6.49756V7.33171H5.50244L9.38049 3.45366L10.2146 4.27317L6.33659 8.15122C6.22927 8.25854 6.10498 8.344 5.96371 8.40761C5.82205 8.47083 5.67317 8.50244 5.51707 8.50244H4.09756C3.93171 8.50244 3.79278 8.44644 3.68078 8.33444C3.56839 8.22205 3.5122 8.08293 3.5122 7.91707V6.49756C3.5122 6.34146 3.54146 6.19258 3.6 6.05093C3.65854 5.90966 3.74146 5.78537 3.84878 5.67805L7.71219 1.81463ZM10.2146 4.27317L7.71219 1.81463L9.17561 0.35122C9.40976 0.117073 9.69034 0 10.0174 0C10.344 0 10.6195 0.117073 10.8439 0.35122L11.6634 1.18537C11.8878 1.40976 12 1.68293 12 2.00488C12 2.32683 11.8878 2.6 11.6634 2.82439L10.2146 4.27317Z" fill="white"/>
</svg>
