<svg width="50" height="50" viewBox="0 0 50 50" fill="none" xmlns="http://www.w3.org/2000/svg">
<path d="M0.207456 24.7747C0.206248 29.1408 1.34706 33.4039 3.51628 37.1615L0 50L13.1386 46.555C16.7726 48.5333 20.8442 49.5699 24.9818 49.5702H24.9926C38.6515 49.5702 49.7702 38.4556 49.776 24.7943C49.7786 18.1744 47.203 11.9495 42.5233 7.26621C37.8445 2.58333 31.6218 0.00302121 24.9916 0C11.3311 0 0.213297 11.114 0.207658 24.7747" fill="url(#paint0_linear_415_1450)"/>
<path d="M18.5797 14.0379C18.0991 12.9698 17.5934 12.9482 17.1364 12.9295C16.7621 12.9134 16.3343 12.9146 15.9069 12.9146C15.4791 12.9146 14.7841 13.0755 14.1965 13.717C13.6084 14.3591 11.9512 15.9108 11.9512 19.0668C11.9512 22.2229 14.2499 25.2729 14.5704 25.7013C14.8912 26.1289 19.0081 32.8127 25.5283 35.3839C30.9471 37.5207 32.0499 37.0957 33.2259 36.9886C34.4022 36.8818 37.0214 35.4373 37.5557 33.9394C38.0905 32.4417 38.0905 31.1578 37.9301 30.8896C37.7698 30.6223 37.342 30.4618 36.7005 30.1411C36.0588 29.8202 32.9051 28.2684 32.3171 28.0543C31.729 27.8404 31.3014 27.7336 30.8736 28.3759C30.4458 29.0172 29.2174 30.4618 28.843 30.8896C28.4689 31.3184 28.0945 31.3717 27.4532 31.0509C26.8113 30.729 24.7454 30.0525 22.2944 27.8673C20.3874 26.167 19.1 24.0673 18.7257 23.425C18.3515 22.7837 18.6856 22.436 19.0073 22.1164C19.2955 21.829 19.649 21.3673 19.9701 20.9929C20.2899 20.6183 20.3967 20.351 20.6106 19.9232C20.8247 19.495 20.7175 19.1203 20.5574 18.7995C20.3967 18.4786 19.1501 15.3062 18.5797 14.0379Z" fill="white"/>
<defs>
<linearGradient id="paint0_linear_415_1450" x1="2488.8" y1="5000" x2="2488.8" y2="0" gradientUnits="userSpaceOnUse">
<stop stop-color="#1FAF38"/>
<stop offset="1" stop-color="#60D669"/>
</linearGradient>
</defs>
</svg>
